testOutput_build.ufo
<glyph name="exclam" format="1">
  <advance width="95"/>
  <unicode hex="0021"/>
  <outline>
    <contour>
      <point x="81" y="709" type="line"/>
      <point x="13" y="709" type="line"/>
      <point x="23" y="188" type="line"/>
      <point x="71" y="188" type="line"/>
    </contour>
    <contour>
      <point x="17" y="102" type="line"/>
      <point x="17" y="0" type="line"/>
      <point x="78" y="0" type="line"/>
      <point x="78" y="102" type="line"/>
    </contour>
  </outline>
</glyph>
<glyph name="numbersign" format="1">
  <advance width="253"/>
  <unicode hex="0023"/>
  <outline>
    <contour>
      <point x="134" y="240" type="line"/>
      <point x="103" y="0" type="line"/>
      <point x="145" y="0" type="line"/>
      <point x="177" y="240" type="line"/>
      <point x="224" y="240" type="line"/>
      <point x="230" y="281" type="line"/>
      <point x="182" y="281" type="line"/>
      <point x="202" y="426" type="line"/>
      <point x="249" y="426" type="line"/>
      <point x="254" y="467" type="line"/>
      <point x="207" y="467" type="line"/>
      <point x="236" y="695" type="line"/>
      <point x="194" y="695" type="line"/>
      <point x="164" y="467" type="line"/>
      <point x="120" y="467" type="line"/>
      <point x="150" y="695" type="line"/>
      <point x="107" y="695" type="line"/>
      <point x="77" y="467" type="line"/>
      <point x="29" y="467" type="line"/>
      <point x="23" y="426" type="line"/>
      <point x="72" y="426" type="line"/>
      <point x="52" y="281" type="line"/>
      <point x="4" y="281" type="line"/>
      <point x="-2" y="240" type="line"/>
      <point x="47" y="240" type="line"/>
      <point x="16" y="0" type="line"/>
      <point x="59" y="0" type="line"/>
      <point x="90" y="240" type="line"/>
    </contour>
    <contour>
      <point x="139" y="281" type="line"/>
      <point x="95" y="281" type="line"/>
      <point x="115" y="426" type="line"/>
      <point x="159" y="426" type="line"/>
    </contour>
  </outline>
</glyph>
<glyph name="dollar" format="1">
  <advance width="220"/>
  <unicode hex="0024"/>
  <outline>
    <contour>
      <point x="123" y="633" type="line"/>
      <point x="144" y="625"/>
      <point x="146" y="584"/>
      <point x="145" y="544" type="curve"/>
      <point x="198" y="543" type="line"/>
      <point x="199" y="606"/>
      <point x="187" y="665"/>
      <point x="123" y="673" type="curve"/>
      <point x="123" y="749" type="line"/>
      <point x="94" y="749" type="line"/>
      <point x="94" y="674" type="line"/>
      <point x="39" y="666"/>
      <point x="12" y="614"/>
      <point x="12" y="536" type="curve" smooth="yes"/>
      <point x="12" y="448"/>
      <point x="44" y="395"/>
      <point x="94" y="336" type="curve"/>
      <point x="94" y="53" type="line"/>
      <point x="65" y="60"/>
      <point x="64" y="99"/>
      <point x="65" y="152" type="curve"/>
      <point x="10" y="152" type="line"/>
      <point x="8" y="70"/>
      <point x="26" y="20"/>
      <point x="94" y="12" type="curve"/>
      <point x="94" y="-70" type="line"/>
      <point x="123" y="-70" type="line"/>
      <point x="123" y="13" type="line"/>
      <point x="182" y="24"/>
      <point x="212" y="93"/>
      <point x="212" y="174" type="curve" smooth="yes"/>
      <point x="212" y="263"/>
      <point x="171" y="312"/>
      <point x="123" y="377" type="curve"/>
    </contour>
    <contour>
      <point x="94" y="413" type="line"/>
      <point x="72" y="454"/>
      <point x="69" y="491"/>
      <point x="69" y="542" type="curve" smooth="yes"/>
      <point x="69" y="586"/>
      <point x="78" y="624"/>
      <point x="94" y="633" type="curve"/>
    </contour>
    <contour>
      <point x="123" y="300" type="line"/>
      <point x="146" y="256"/>
      <point x="154" y="223"/>
      <point x="154" y="170" type="curve" smooth="yes"/>
      <point x="154" y="116"/>
      <point x="148" y="63"/>
      <point x="123" y="54" type="curve"/>
    </contour>
  </outline>
</glyph>
<glyph name="percent" format="1">
  <advance width="376"/>
  <unicode hex="0025"/>
  <outline>
    <contour>
      <point x="173" y="535" type="line"/>
      <point x="173" y="655"/>
      <point x="143" y="716"/>
      <point x="90" y="716" type="curve" smooth="yes"/>
      <point x="37" y="716"/>
      <point x="8" y="655"/>
      <point x="8" y="535" type="curve" smooth="yes"/>
      <point x="8" y="415"/>
      <point x="39" y="355"/>
      <point x="90" y="355" type="curve" smooth="yes"/>
      <point x="141" y="355"/>
      <point x="173" y="415"/>
      <point x="173" y="534" type="curve"/>
    </contour>
    <contour>
      <point x="319" y="713" type="line"/>
      <point x="270" y="713" type="line"/>
      <point x="55" y="-8" type="line"/>
      <point x="105" y="-8" type="line"/>
    </contour>
    <contour>
      <point x="90" y="392" type="line"/>
      <point x="65" y="392"/>
      <point x="60" y="450"/>
      <point x="60" y="536" type="curve" smooth="yes"/>
      <point x="60" y="620"/>
      <point x="65" y="679"/>
      <point x="90" y="679" type="curve" smooth="yes"/>
      <point x="116" y="679"/>
      <point x="120" y="620"/>
      <point x="120" y="536" type="curve" smooth="yes"/>
      <point x="120" y="450"/>
      <point x="116" y="392"/>
      <point x="91" y="392" type="curve"/>
    </contour>
    <contour>
      <point x="369" y="168" type="line"/>
      <point x="369" y="288"/>
      <point x="339" y="349"/>
      <point x="287" y="349" type="curve" smooth="yes"/>
      <point x="234" y="349"/>
      <point x="204" y="288"/>
      <point x="204" y="168" type="curve" smooth="yes"/>
      <point x="204" y="48"/>
      <point x="235" y="-13"/>
      <point x="287" y="-13" type="curve" smooth="yes"/>
      <point x="337" y="-13"/>
      <point x="369" y="48"/>
      <point x="369" y="167" type="curve"/>
    </contour>
    <contour>
      <point x="287" y="25" type="line"/>
      <point x="261" y="25"/>
      <point x="257" y="83"/>
      <point x="257" y="169" type="curve" smooth="yes"/>
      <point x="257" y="254"/>
      <point x="261" y="312"/>
      <point x="287" y="312" type="curve" smooth="yes"/>
      <point x="312" y="312"/>
      <point x="316" y="254"/>
      <point x="316" y="169" type="curve" smooth="yes"/>
      <point x="316" y="83"/>
      <point x="312" y="25"/>
      <point x="288" y="25" type="curve"/>
    </contour>
  </outline>
</glyph>
<glyph name="ampersand" format="1">
  <advance width="239"/>
  <unicode hex="0026"/>
  <outline>
    <contour>
      <point x="245" y="-1" type="line"/>
      <point x="235" y="23"/>
      <point x="220" y="65"/>
      <point x="205" y="112" type="curve"/>
      <point x="222" y="185"/>
      <point x="229" y="255"/>
      <point x="228" y="351" type="curve"/>
      <point x="179" y="351" type="line"/>
      <point x="179" y="277"/>
      <point x="179" y="211"/>
      <point x="177" y="163" type="curve"/>
      <point x="168" y="209"/>
      <point x="141" y="313"/>
      <point x="130" y="379" type="curve"/>
      <point x="164" y="444"/>
      <point x="186" y="497"/>
      <point x="186" y="563" type="curve" smooth="yes"/>
      <point x="186" y="642"/>
      <point x="147" y="673"/>
      <point x="115" y="673" type="curve" smooth="yes"/>
      <point x="62" y="673"/>
      <point x="38" y="628"/>
      <point x="38" y="553" type="curve" smooth="yes"/>
      <point x="38" y="493"/>
      <point x="51" y="434"/>
      <point x="71" y="375" type="curve"/>
      <point x="34" y="308"/>
      <point x="12" y="243"/>
      <point x="12" y="163" type="curve" smooth="yes"/>
      <point x="12" y="48"/>
      <point x="43" y="-14"/>
      <point x="100" y="-14" type="curve" smooth="yes"/>
      <point x="142" y="-14"/>
      <point x="160" y="21"/>
      <point x="169" y="59" type="curve"/>
      <point x="171" y="59" type="line"/>
      <point x="175" y="36"/>
      <point x="180" y="19"/>
      <point x="186" y="-1" type="curve"/>
    </contour>
    <contour>
      <point x="93" y="553" type="line"/>
      <point x="93" y="615"/>
      <point x="104" y="633"/>
      <point x="116" y="633" type="curve" smooth="yes"/>
      <point x="129" y="633"/>
      <point x="137" y="601"/>
      <point x="137" y="561" type="curve" smooth="yes"/>
      <point x="137" y="516"/>
      <point x="121" y="460"/>
      <point x="109" y="418" type="curve"/>
      <point x="101" y="458"/>
      <point x="93" y="499"/>
      <point x="93" y="552" type="curve"/>
    </contour>
    <contour>
      <point x="71" y="157" type="line"/>
      <point x="71" y="223"/>
      <point x="82" y="276"/>
      <point x="94" y="325" type="curve"/>
      <point x="108" y="250"/>
      <point x="131" y="165"/>
      <point x="148" y="102" type="curve"/>
      <point x="141" y="59"/>
      <point x="129" y="27"/>
      <point x="109" y="27" type="curve" smooth="yes"/>
      <point x="81" y="27"/>
      <point x="71" y="86"/>
      <point x="71" y="156" type="curve"/>
    </contour>
  </outline>
</glyph>
<glyph name="parenleft" format="1">
  <advance width="129"/>
  <unicode hex="0028"/>
  <outline>
    <contour>
      <point x="155" y="-155" type="line"/>
      <point x="131" y="-100"/>
      <point x="115" y="-49"/>
      <point x="104" y="4" type="curve" smooth="yes"/>
      <point x="82" y="114"/>
      <point x="84" y="210"/>
      <point x="84" y="292" type="curve" smooth="yes"/>
      <point x="84" y="413"/>
      <point x="91" y="504"/>
      <point x="106" y="579" type="curve" smooth="yes"/>
      <point x="118" y="639"/>
      <point x="135" y="689"/>
      <point x="156" y="737" type="curve"/>
      <point x="128" y="767" type="line"/>
      <point x="103" y="718"/>
      <point x="76" y="666"/>
      <point x="57" y="603" type="curve" smooth="yes"/>
      <point x="35" y="522"/>
      <point x="21" y="425"/>
      <point x="19" y="292" type="curve" smooth="yes"/>
      <point x="18" y="160"/>
      <point x="32" y="62"/>
      <point x="56" y="-21" type="curve" smooth="yes"/>
      <point x="75" y="-84"/>
      <point x="102" y="-137"/>
      <point x="127" y="-185" type="curve"/>
    </contour>
  </outline>
</glyph>
<glyph name="parenright" format="1">
  <advance width="129"/>
  <unicode hex="0029"/>
  <outline>
    <contour>
      <point x="2" y="-185" type="line"/>
      <point x="27" y="-137"/>
      <point x="54" y="-84"/>
      <point x="74" y="-21" type="curve" smooth="yes"/>
      <point x="97" y="62"/>
      <point x="112" y="160"/>
      <point x="110" y="292" type="curve" smooth="yes"/>
      <point x="109" y="425"/>
      <point x="96" y="522"/>
      <point x="72" y="603" type="curve" smooth="yes"/>
      <point x="53" y="666"/>
      <point x="27" y="718"/>
      <point x="1" y="767" type="curve"/>
      <point x="-27" y="737" type="line"/>
      <point x="-5" y="689"/>
      <point x="12" y="639"/>
      <point x="23" y="579" type="curve" smooth="yes"/>
      <point x="38" y="504"/>
      <point x="46" y="413"/>
      <point x="46" y="292" type="curve" smooth="yes"/>
      <point x="46" y="210"/>
      <point x="47" y="114"/>
      <point x="25" y="4" type="curve" smooth="yes"/>
      <point x="15" y="-49"/>
      <point x="-2" y="-100"/>
      <point x="-26" y="-155" type="curve"/>
    </contour>
  </outline>
</glyph>
<glyph name="comma" format="1">
  <advance width="85"/>
  <unicode hex="002C"/>
  <outline>
    <contour>
      <point x="3" y="-100" type="line"/>
      <point x="42" y="-100" type="line"/>
      <point x="83" y="102" type="line"/>
      <point x="17" y="102" type="line"/>
    </contour>
  </outline>
</glyph>
<glyph name="hyphen" format="1">
  <advance width="142"/>
  <unicode hex="002D"/>
  <outline>
    <contour>
      <point x="13" y="278" type="line"/>
      <point x="13" y="221" type="line"/>
      <point x="129" y="221" type="line"/>
      <point x="129" y="278" type="line"/>
    </contour>
  </outline>
</glyph>
<glyph name="period" format="1">
  <advance width="85"/>
  <unicode hex="002E"/>
  <outline>
    <contour>
      <point x="12" y="102" type="line"/>
      <point x="12" y="0" type="line"/>
      <point x="73" y="0" type="line"/>
      <point x="73" y="102" type="line"/>
    </contour>
  </outline>
</glyph>
<glyph name="slash" format="1">
  <advance width="174"/>
  <unicode hex="002F"/>
  <outline>
    <contour>
      <point x="179" y="739" type="line"/>
      <point x="128" y="739" type="line"/>
      <point x="-6" y="-12" type="line"/>
      <point x="45" y="-12" type="line"/>
    </contour>
  </outline>
</glyph>
<glyph name="zero" format="1">
  <advance width="227"/>
  <unicode hex="0030"/>
  <outline>
    <contour>
      <point x="16" y="346" type="line"/>
      <point x="16" y="54"/>
      <point x="53" y="-14"/>
      <point x="113" y="-14" type="curve" smooth="yes"/>
      <point x="177" y="-14"/>
      <point x="211" y="61"/>
      <point x="211" y="346" type="curve" smooth="yes"/>
      <point x="211" y="620"/>
      <point x="178" y="705"/>
      <point x="113" y="705" type="curve" smooth="yes"/>
      <point x="50" y="705"/>
      <point x="16" y="621"/>
      <point x="16" y="347" type="curve"/>
    </contour>
    <contour>
      <point x="113" y="659" type="line"/>
      <point x="139" y="659"/>
      <point x="149" y="563"/>
      <point x="149" y="346" type="curve" smooth="yes"/>
      <point x="149" y="87"/>
      <point x="134" y="33"/>
      <point x="113" y="33" type="curve" smooth="yes"/>
      <point x="93" y="33"/>
      <point x="77" y="85"/>
      <point x="77" y="346" type="curve" smooth="yes"/>
      <point x="77" y="564"/>
      <point x="88" y="659"/>
      <point x="112" y="659" type="curve"/>
    </contour>
  </outline>
</glyph>
<glyph name="one" format="1">
  <advance width="181"/>
  <unicode hex="0031"/>
  <outline>
    <contour>
      <point x="-11" y="624" type="line"/>
      <point x="14" y="579" type="line"/>
      <point x="79" y="618" type="line"/>
      <point x="79" y="0" type="line"/>
      <point x="140" y="0" type="line"/>
      <point x="140" y="698" type="line"/>
      <point x="110" y="698" type="line"/>
    </contour>
  </outline>
</glyph>
<glyph name="two" format="1">
  <advance width="222"/>
  <unicode hex="0032"/>
  <outline>
    <contour>
      <point x="210" y="53" type="line"/>
      <point x="67" y="53" type="line"/>
      <point x="93" y="268"/>
      <point x="214" y="332"/>
      <point x="214" y="528" type="curve" smooth="yes"/>
      <point x="214" y="611"/>
      <point x="190" y="705"/>
      <point x="107" y="705" type="curve" smooth="yes"/>
      <point x="24" y="705"/>
      <point x="7" y="619"/>
      <point x="8" y="563" type="curve"/>
      <point x="68" y="564" type="line"/>
      <point x="67" y="608"/>
      <point x="73" y="659"/>
      <point x="107" y="659" type="curve" smooth="yes"/>
      <point x="142" y="659"/>
      <point x="152" y="588"/>
      <point x="152" y="527" type="curve" smooth="yes"/>
      <point x="152" y="355"/>
      <point x="25" y="277"/>
      <point x="4" y="9" type="curve"/>
      <point x="12" y="0" type="line"/>
      <point x="210" y="0" type="line"/>
    </contour>
  </outline>
</glyph>
<glyph name="three" format="1">
  <advance width="223"/>
  <unicode hex="0033"/>
  <outline>
    <contour>
      <point x="63" y="345" type="line"/>
      <point x="122" y="335"/>
      <point x="151" y="284"/>
      <point x="151" y="174" type="curve" smooth="yes"/>
      <point x="151" y="102"/>
      <point x="138" y="34"/>
      <point x="105" y="34" type="curve" smooth="yes"/>
      <point x="76" y="34"/>
      <point x="67" y="79"/>
      <point x="67" y="125" type="curve"/>
      <point x="9" y="126" type="line"/>
      <point x="7" y="56"/>
      <point x="29" y="-12"/>
      <point x="106" y="-12" type="curve" smooth="yes"/>
      <point x="174" y="-12"/>
      <point x="213" y="59"/>
      <point x="213" y="185" type="curve" smooth="yes"/>
      <point x="213" y="318"/>
      <point x="155" y="362"/>
      <point x="119" y="372" type="curve"/>
      <point x="119" y="374" type="line"/>
      <point x="172" y="395"/>
      <point x="201" y="452"/>
      <point x="201" y="552" type="curve" smooth="yes"/>
      <point x="201" y="650"/>
      <point x="164" y="705"/>
      <point x="104" y="705" type="curve" smooth="yes"/>
      <point x="40" y="705"/>
      <point x="12" y="647"/>
      <point x="13" y="575" type="curve"/>
      <point x="69" y="576" type="line"/>
      <point x="69" y="622"/>
      <point x="80" y="659"/>
      <point x="103" y="659" type="curve" smooth="yes"/>
      <point x="127" y="659"/>
      <point x="141" y="613"/>
      <point x="141" y="548" type="curve" smooth="yes"/>
      <point x="141" y="461"/>
      <point x="119" y="408"/>
      <point x="63" y="393" type="curve"/>
    </contour>
  </outline>
</glyph>
<glyph name="four" format="1">
  <advance width="228"/>
  <unicode hex="0034"/>
  <outline>
    <contour>
      <point x="4" y="230" type="line"/>
      <point x="4" y="189" type="line"/>
      <point x="135" y="189" type="line"/>
      <point x="135" y="0" type="line"/>
      <point x="195" y="0" type="line"/>
      <point x="195" y="189" type="line"/>
      <point x="219" y="189" type="line"/>
      <point x="219" y="233" type="line"/>
      <point x="195" y="233" type="line"/>
      <point x="195" y="698" type="line"/>
      <point x="128" y="698" type="line"/>
    </contour>
    <contour>
      <point x="51" y="233" type="line"/>
      <point x="92" y="411" type="line"/>
      <point x="108" y="473"/>
      <point x="121" y="531"/>
      <point x="134" y="592" type="curve"/>
      <point x="136" y="592" type="line"/>
      <point x="135" y="533"/>
      <point x="135" y="472"/>
      <point x="135" y="412" type="curve" smooth="yes"/>
      <point x="135" y="233" type="line"/>
    </contour>
  </outline>
</glyph>
<glyph name="five" format="1">
  <advance width="226"/>
  <unicode hex="0035"/>
  <outline>
    <contour>
      <point x="20" y="337" type="line"/>
      <point x="73" y="329" type="line"/>
      <point x="82" y="372"/>
      <point x="93" y="398"/>
      <point x="109" y="398" type="curve" smooth="yes"/>
      <point x="136" y="398"/>
      <point x="152" y="330"/>
      <point x="152" y="214" type="curve" smooth="yes"/>
      <point x="152" y="81"/>
      <point x="129" y="33"/>
      <point x="107" y="33" type="curve" smooth="yes"/>
      <point x="80" y="33"/>
      <point x="69" y="84"/>
      <point x="71" y="146" type="curve"/>
      <point x="11" y="147" type="line"/>
      <point x="10" y="58"/>
      <point x="39" y="-12"/>
      <point x="107" y="-12" type="curve" smooth="yes"/>
      <point x="164" y="-12"/>
      <point x="214" y="49"/>
      <point x="214" y="217" type="curve" smooth="yes"/>
      <point x="214" y="358"/>
      <point x="186" y="443"/>
      <point x="129" y="443" type="curve" smooth="yes"/>
      <point x="105" y="443"/>
      <point x="90" y="426"/>
      <point x="81" y="408" type="curve"/>
      <point x="79" y="408" type="line"/>
      <point x="101" y="642" type="line"/>
      <point x="197" y="642" type="line"/>
      <point x="201" y="692" type="line"/>
      <point x="51" y="692" type="line"/>
    </contour>
  </outline>
</glyph>
<glyph name="six" format="1">
  <advance width="225"/>
  <unicode hex="0036"/>
  <outline>
    <contour>
      <point x="70" y="370" type="line"/>
      <point x="70" y="617"/>
      <point x="99" y="659"/>
      <point x="120" y="659" type="curve" smooth="yes"/>
      <point x="142" y="659"/>
      <point x="147" y="623"/>
      <point x="146" y="587" type="curve"/>
      <point x="204" y="586" type="line"/>
      <point x="207" y="665"/>
      <point x="172" y="705"/>
      <point x="121" y="705" type="curve" smooth="yes"/>
      <point x="30" y="705"/>
      <point x="8" y="590"/>
      <point x="8" y="314" type="curve" smooth="yes"/>
      <point x="8" y="25"/>
      <point x="79" y="-12"/>
      <point x="119" y="-12" type="curve" smooth="yes"/>
      <point x="191" y="-12"/>
      <point x="221" y="75"/>
      <point x="221" y="218" type="curve" smooth="yes"/>
      <point x="221" y="363"/>
      <point x="188" y="440"/>
      <point x="135" y="440" type="curve" smooth="yes"/>
      <point x="106" y="440"/>
      <point x="86" y="414"/>
      <point x="71" y="370" type="curve"/>
    </contour>
    <contour>
      <point x="72" y="265" type="line"/>
      <point x="72" y="330"/>
      <point x="93" y="393"/>
      <point x="118" y="393" type="curve" smooth="yes"/>
      <point x="149" y="393"/>
      <point x="160" y="295"/>
      <point x="160" y="212" type="curve" smooth="yes"/>
      <point x="160" y="139"/>
      <point x="155" y="34"/>
      <point x="118" y="34" type="curve" smooth="yes"/>
      <point x="91" y="34"/>
      <point x="72" y="120"/>
      <point x="72" y="264" type="curve"/>
    </contour>
  </outline>
</glyph>
<glyph name="seven" format="1">
  <advance width="199"/>
  <unicode hex="0037"/>
  <outline>
    <contour>
      <point x="197" y="692" type="line"/>
      <point x="0" y="692" type="line"/>
      <point x="0" y="639" type="line"/>
      <point x="138" y="639" type="line"/>
      <point x="138" y="636" type="line"/>
      <point x="36" y="0" type="line"/>
      <point x="101" y="0" type="line"/>
      <point x="197" y="671" type="line"/>
    </contour>
  </outline>
</glyph>
<glyph name="eight" format="1">
  <advance width="225"/>
  <unicode hex="0038"/>
  <outline>
    <contour>
      <point x="73" y="369" type="line"/>
      <point x="52" y="358"/>
      <point x="8" y="321"/>
      <point x="8" y="187" type="curve" smooth="yes"/>
      <point x="8" y="44"/>
      <point x="66" y="-12"/>
      <point x="112" y="-12" type="curve" smooth="yes"/>
      <point x="158" y="-12"/>
      <point x="217" y="45"/>
      <point x="217" y="187" type="curve" smooth="yes"/>
      <point x="217" y="316"/>
      <point x="174" y="357"/>
      <point x="152" y="369" type="curve"/>
      <point x="152" y="370" type="line"/>
      <point x="162" y="378"/>
      <point x="210" y="396"/>
      <point x="210" y="531" type="curve" smooth="yes"/>
      <point x="210" y="643"/>
      <point x="169" y="705"/>
      <point x="112" y="705" type="curve" smooth="yes"/>
      <point x="51" y="705"/>
      <point x="15" y="641"/>
      <point x="15" y="531" type="curve" smooth="yes"/>
      <point x="15" y="408"/>
      <point x="53" y="384"/>
      <point x="73" y="370" type="curve"/>
    </contour>
    <contour>
      <point x="76" y="524" type="line"/>
      <point x="76" y="619"/>
      <point x="95" y="659"/>
      <point x="112" y="659" type="curve" smooth="yes"/>
      <point x="133" y="659"/>
      <point x="149" y="612"/>
      <point x="149" y="524" type="curve" smooth="yes"/>
      <point x="149" y="410"/>
      <point x="124" y="389"/>
      <point x="112" y="389" type="curve" smooth="yes"/>
      <point x="96" y="389"/>
      <point x="76" y="420"/>
      <point x="76" y="523" type="curve"/>
    </contour>
    <contour>
      <point x="70" y="188" type="line"/>
      <point x="70" y="298"/>
      <point x="95" y="343"/>
      <point x="112" y="343" type="curve" smooth="yes"/>
      <point x="127" y="343"/>
      <point x="155" y="302"/>
      <point x="155" y="188" type="curve" smooth="yes"/>
      <point x="155" y="85"/>
      <point x="136" y="34"/>
      <point x="112" y="34" type="curve" smooth="yes"/>
      <point x="91" y="34"/>
      <point x="70" y="83"/>
      <point x="70" y="187" type="curve"/>
    </contour>
  </outline>
</glyph>
<glyph name="nine" format="1">
  <advance width="226"/>
  <unicode hex="0039"/>
  <outline>
    <contour>
      <point x="157" y="323" type="line"/>
      <point x="156" y="105"/>
      <point x="134" y="34"/>
      <point x="106" y="34" type="curve" smooth="yes"/>
      <point x="75" y="34"/>
      <point x="73" y="85"/>
      <point x="74" y="132" type="curve"/>
      <point x="16" y="133" type="line"/>
      <point x="13" y="41"/>
      <point x="40" y="-12"/>
      <point x="104" y="-12" type="curve" smooth="yes"/>
      <point x="201" y="-12"/>
      <point x="218" y="158"/>
      <point x="218" y="383" type="curve" smooth="yes"/>
      <point x="218" y="653"/>
      <point x="160" y="705"/>
      <point x="107" y="705" type="curve" smooth="yes"/>
      <point x="37" y="705"/>
      <point x="5" y="623"/>
      <point x="5" y="476" type="curve" smooth="yes"/>
      <point x="5" y="383"/>
      <point x="20" y="254"/>
      <point x="91" y="254" type="curve" smooth="yes"/>
      <point x="129" y="254"/>
      <point x="146" y="301"/>
      <point x="155" y="323" type="curve"/>
    </contour>
    <contour>
      <point x="154" y="421" type="line"/>
      <point x="154" y="377"/>
      <point x="139" y="300"/>
      <point x="107" y="300" type="curve" smooth="yes"/>
      <point x="74" y="300"/>
      <point x="67" y="408"/>
      <point x="67" y="481" type="curve" smooth="yes"/>
      <point x="67" y="584"/>
      <point x="78" y="659"/>
      <point x="108" y="659" type="curve" smooth="yes"/>
      <point x="126" y="659"/>
      <point x="154" y="612"/>
      <point x="154" y="422" type="curve"/>
    </contour>
  </outline>
</glyph>
<glyph name="colon" format="1">
  <advance width="85"/>
  <unicode hex="003A"/>
  <outline>
    <contour>
      <point x="12" y="490" type="line"/>
      <point x="12" y="388" type="line"/>
      <point x="73" y="388" type="line"/>
      <point x="73" y="490" type="line"/>
    </contour>
    <contour>
      <point x="12" y="102" type="line"/>
      <point x="12" y="0" type="line"/>
      <point x="73" y="0" type="line"/>
      <point x="73" y="102" type="line"/>
    </contour>
  </outline>
</glyph>
<glyph name="semicolon" format="1">
  <advance width="85"/>
  <unicode hex="003B"/>
  <outline>
    <contour>
      <point x="15" y="490" type="line"/>
      <point x="15" y="388" type="line"/>
      <point x="75" y="388" type="line"/>
      <point x="75" y="490" type="line"/>
    </contour>
    <contour>
      <point x="3" y="-100" type="line"/>
      <point x="42" y="-100" type="line"/>
      <point x="83" y="102" type="line"/>
      <point x="17" y="102" type="line"/>
    </contour>
  </outline>
</glyph>
<glyph name="question" format="1">
  <advance width="187"/>
  <unicode hex="003F"/>
  <outline>
    <contour>
      <point x="118" y="178" type="line"/>
      <point x="114" y="257"/>
      <point x="127" y="330"/>
      <point x="147" y="391" type="curve" smooth="yes"/>
      <point x="171" y="456"/>
      <point x="188" y="506"/>
      <point x="188" y="578" type="curve" smooth="yes"/>
      <point x="188" y="635"/>
      <point x="171" y="716"/>
      <point x="97" y="716" type="curve" smooth="yes"/>
      <point x="38" y="716"/>
      <point x="-2" y="665"/>
      <point x="-1" y="551" type="curve"/>
      <point x="61" y="549" type="line"/>
      <point x="60" y="621"/>
      <point x="72" y="673"/>
      <point x="97" y="673" type="curve" smooth="yes"/>
      <point x="113" y="673"/>
      <point x="126" y="647"/>
      <point x="126" y="578" type="curve" smooth="yes"/>
      <point x="126" y="521"/>
      <point x="117" y="485"/>
      <point x="98" y="414" type="curve" smooth="yes"/>
      <point x="70" y="320"/>
      <point x="65" y="244"/>
      <point x="69" y="178" type="curve"/>
    </contour>
    <contour>
      <point x="64" y="102" type="line"/>
      <point x="64" y="0" type="line"/>
      <point x="124" y="0" type="line"/>
      <point x="124" y="102" type="line"/>
    </contour>
  </outline>
</glyph>
<glyph name="at" format="1">
  <advance width="397"/>
  <unicode hex="0040"/>
  <outline>
    <contour>
      <point x="295" y="180" type="line"/>
      <point x="273" y="170"/>
      <point x="244" y="156"/>
      <point x="194" y="156" type="curve" smooth="yes"/>
      <point x="117" y="156"/>
      <point x="50" y="208"/>
      <point x="50" y="313" type="curve" smooth="yes"/>
      <point x="50" y="363"/>
      <point x="68" y="412"/>
      <point x="100" y="448" type="curve" smooth="yes"/>
      <point x="132" y="484"/>
      <point x="177" y="508"/>
      <point x="231" y="508" type="curve" smooth="yes"/>
      <point x="269" y="508"/>
      <point x="301" y="498"/>
      <point x="322" y="478" type="curve" smooth="yes"/>
      <point x="342" y="460"/>
      <point x="355" y="432"/>
      <point x="355" y="394" type="curve" smooth="yes"/>
      <point x="355" y="354"/>
      <point x="338" y="315"/>
      <point x="319" y="290" type="curve" smooth="yes"/>
      <point x="305" y="271"/>
      <point x="289" y="259"/>
      <point x="276" y="259" type="curve" smooth="yes"/>
      <point x="260" y="259"/>
      <point x="259" y="271"/>
      <point x="269" y="303" type="curve" smooth="yes"/>
      <point x="313" y="449" type="line"/>
      <point x="271" y="449" type="line"/>
      <point x="267" y="430" type="line"/>
      <point x="265" y="430" type="line"/>
      <point x="258" y="445"/>
      <point x="244" y="450"/>
      <point x="226" y="450" type="curve" smooth="yes"/>
      <point x="200" y="450"/>
      <point x="173" y="440"/>
      <point x="144" y="407" type="curve" smooth="yes"/>
      <point x="118" y="375"/>
      <point x="99" y="335"/>
      <point x="99" y="288" type="curve" smooth="yes"/>
      <point x="99" y="250"/>
      <point x="116" y="225"/>
      <point x="150" y="225" type="curve" smooth="yes"/>
      <point x="184" y="225"/>
      <point x="216" y="256"/>
      <point x="226" y="279" type="curve"/>
      <point x="228" y="279" type="line"/>
      <point x="224" y="266"/>
      <point x="224" y="250"/>
      <point x="232" y="239" type="curve" smooth="yes"/>
      <point x="240" y="230"/>
      <point x="250" y="225"/>
      <point x="268" y="225" type="curve" smooth="yes"/>
      <point x="296" y="225"/>
      <point x="326" y="241"/>
      <point x="353" y="274" type="curve" smooth="yes"/>
      <point x="377" y="304"/>
      <point x="393" y="347"/>
      <point x="393" y="393" type="curve" smooth="yes"/>
      <point x="393" y="482"/>
      <point x="338" y="545"/>
      <point x="232" y="545" type="curve" smooth="yes"/>
      <point x="99" y="545"/>
      <point x="6" y="438"/>
      <point x="6" y="316" type="curve" smooth="yes"/>
      <point x="6" y="184"/>
      <point x="97" y="120"/>
      <point x="190" y="120" type="curve" smooth="yes"/>
      <point x="237" y="120"/>
      <point x="281" y="132"/>
      <point x="312" y="154" type="curve"/>
    </contour>
    <contour>
      <point x="144" y="296" type="line"/>
      <point x="144" y="325"/>
      <point x="157" y="359"/>
      <point x="180" y="387" type="curve"/>
      <point x="198" y="410"/>
      <point x="217" y="417"/>
      <point x="231" y="417" type="curve" smooth="yes"/>
      <point x="250" y="417"/>
      <point x="256" y="408"/>
      <point x="256" y="399" type="curve" smooth="yes"/>
      <point x="256" y="394"/>
      <point x="248" y="370"/>
      <point x="240" y="343" type="curve" smooth="yes"/>
      <point x="231" y="316"/>
      <point x="196" y="267"/>
      <point x="164" y="267" type="curve" smooth="yes"/>
      <point x="150" y="267"/>
      <point x="144" y="278"/>
      <point x="144" y="295" type="curve"/>
    </contour>
  </outline>
</glyph>
<glyph name="A" format="1">
  <advance width="207"/>
  <unicode hex="0041"/>
  <outline>
    <contour>
      <point x="131" y="224" type="line"/>
      <point x="153" y="0" type="line"/>
      <point x="216" y="0" type="line"/>
      <point x="147" y="709" type="line"/>
      <point x="60" y="709" type="line"/>
      <point x="-2" y="0" type="line"/>
      <point x="61" y="0" type="line"/>
      <point x="76" y="224" type="line"/>
    </contour>
    <contour>
      <point x="130" y="272" type="line"/>
      <point x="77" y="272" type="line"/>
      <point x="91" y="463" type="line"/>
      <point x="95" y="525"/>
      <point x="98" y="589"/>
      <point x="101" y="661" type="curve"/>
      <point x="105" y="661" type="line"/>
      <point x="108" y="589"/>
      <point x="113" y="530"/>
      <point x="117" y="466" type="curve" smooth="yes"/>
    </contour>
  </outline>
</glyph>
<glyph name="B" format="1">
  <advance width="227"/>
  <unicode hex="0042"/>
  <outline>
    <contour>
      <point x="127" y="377" type="line"/>
      <point x="162" y="389"/>
      <point x="201" y="423"/>
      <point x="201" y="536" type="curve" smooth="yes"/>
      <point x="201" y="674"/>
      <point x="143" y="709"/>
      <point x="70" y="709" type="curve" smooth="yes"/>
      <point x="19" y="709" type="line"/>
      <point x="19" y="0" type="line"/>
      <point x="77" y="0" type="line" smooth="yes"/>
      <point x="169" y="0"/>
      <point x="214" y="58"/>
      <point x="214" y="190" type="curve" smooth="yes"/>
      <point x="214" y="309"/>
      <point x="183" y="356"/>
      <point x="127" y="374" type="curve"/>
    </contour>
    <contour>
      <point x="149" y="193" type="curve" smooth="yes"/>
      <point x="149" y="91"/>
      <point x="129" y="48"/>
      <point x="82" y="48" type="curve" smooth="yes"/>
      <point x="83" y="48" type="line"/>
      <point x="83" y="349" type="line"/>
      <point x="85" y="349" type="line" smooth="yes"/>
      <point x="134" y="349"/>
      <point x="149" y="288"/>
    </contour>
    <contour>
      <point x="139" y="530" type="curve" smooth="yes"/>
      <point x="139" y="439"/>
      <point x="118" y="398"/>
      <point x="86" y="398" type="curve" smooth="yes"/>
      <point x="83" y="398" type="line"/>
      <point x="83" y="661" type="line"/>
      <point x="83" y="661" type="line" smooth="yes"/>
      <point x="114" y="661"/>
      <point x="139" y="626"/>
    </contour>
  </outline>
</glyph>
<glyph name="C" format="1">
  <advance width="226"/>
  <unicode hex="0043"/>
  <outline>
    <contour>
      <point x="151" y="185" type="line"/>
      <point x="153" y="107"/>
      <point x="147" y="33"/>
      <point x="121" y="33" type="curve" smooth="yes"/>
      <point x="102" y="33"/>
      <point x="82" y="75"/>
      <point x="82" y="354" type="curve" smooth="yes"/>
      <point x="82" y="621"/>
      <point x="103" y="676"/>
      <point x="121" y="676" type="curve" smooth="yes"/>
      <point x="142" y="676"/>
      <point x="148" y="633"/>
      <point x="147" y="538" type="curve"/>
      <point x="208" y="537" type="line"/>
      <point x="209" y="675"/>
      <point x="168" y="723"/>
      <point x="123" y="723" type="curve" smooth="yes"/>
      <point x="83" y="723"/>
      <point x="60" y="693"/>
      <point x="44" y="638" type="curve" smooth="yes"/>
      <point x="23" y="575"/>
      <point x="16" y="478"/>
      <point x="16" y="358" type="curve" smooth="yes"/>
      <point x="16" y="212"/>
      <point x="26" y="122"/>
      <point x="43" y="68" type="curve" smooth="yes"/>
      <point x="61" y="9"/>
      <point x="87" y="-14"/>
      <point x="123" y="-14" type="curve" smooth="yes"/>
      <point x="177" y="-14"/>
      <point x="215" y="71"/>
      <point x="213" y="186" type="curve"/>
    </contour>
  </outline>
</glyph>
<glyph name="D" format="1">
  <advance width="224"/>
  <unicode hex="0044"/>
  <outline>
    <contour>
      <point x="211" y="357" type="curve" smooth="yes"/>
      <point x="211" y="653"/>
      <point x="154" y="709"/>
      <point x="76" y="709" type="curve" smooth="yes"/>
      <point x="19" y="709" type="line"/>
      <point x="19" y="0" type="line"/>
      <point x="76" y="0" type="line"/>
      <point x="170" y="0"/>
      <point x="211" y="87"/>
    </contour>
    <contour>
      <point x="146" y="355" type="curve" smooth="yes"/>
      <point x="146" y="108"/>
      <point x="122" y="48"/>
      <point x="81" y="48" type="curve" smooth="yes"/>
      <point x="83" y="48" type="line"/>
      <point x="83" y="661" type="line"/>
      <point x="81" y="661" type="line"/>
      <point x="120" y="661"/>
      <point x="146" y="592"/>
    </contour>
  </outline>
</glyph>
<glyph name="E" format="1">
  <advance width="185"/>
  <unicode hex="0045"/>
  <outline>
    <contour>
      <point x="83" y="344" type="line"/>
      <point x="83" y="661" type="line"/>
      <point x="169" y="661" type="line"/>
      <point x="169" y="709" type="line"/>
      <point x="19" y="709" type="line"/>
      <point x="19" y="0" type="line"/>
      <point x="173" y="0" type="line"/>
      <point x="173" y="48" type="line"/>
      <point x="83" y="48" type="line"/>
      <point x="83" y="296" type="line"/>
      <point x="155" y="296" type="line"/>
      <point x="155" y="344" type="line"/>
    </contour>
  </outline>
</glyph>
<glyph name="F" format="1">
  <advance width="183"/>
  <unicode hex="0046"/>
  <outline>
    <contour>
      <point x="83" y="0" type="line"/>
      <point x="83" y="346" type="line"/>
      <point x="154" y="346" type="line"/>
      <point x="154" y="395" type="line"/>
      <point x="83" y="395" type="line"/>
      <point x="83" y="661" type="line"/>
      <point x="173" y="661" type="line"/>
      <point x="173" y="709" type="line"/>
      <point x="19" y="709" type="line"/>
      <point x="19" y="0" type="line"/>
    </contour>
  </outline>
</glyph>
<glyph name="G" format="1">
  <advance width="226"/>
  <unicode hex="0047"/>
  <outline>
    <contour>
      <point x="209" y="326" type="line"/>
      <point x="121" y="326" type="line"/>
      <point x="121" y="277" type="line"/>
      <point x="149" y="277" type="line"/>
      <point x="149" y="54" type="line"/>
      <point x="146" y="45"/>
      <point x="138" y="33"/>
      <point x="126" y="33" type="curve" smooth="yes"/>
      <point x="92" y="33"/>
      <point x="82" y="127"/>
      <point x="82" y="355" type="curve" smooth="yes"/>
      <point x="82" y="583"/>
      <point x="93" y="676"/>
      <point x="120" y="676" type="curve" smooth="yes"/>
      <point x="142" y="676"/>
      <point x="148" y="641"/>
      <point x="148" y="541" type="curve"/>
      <point x="209" y="541" type="line"/>
      <point x="210" y="656"/>
      <point x="186" y="723"/>
      <point x="121" y="723" type="curve" smooth="yes"/>
      <point x="52" y="723"/>
      <point x="16" y="648"/>
      <point x="16" y="357" type="curve" smooth="yes"/>
      <point x="16" y="93"/>
      <point x="37" y="-14"/>
      <point x="125" y="-14" type="curve" smooth="yes"/>
      <point x="168" y="-14"/>
      <point x="198" y="21"/>
      <point x="209" y="47" type="curve"/>
    </contour>
  </outline>
</glyph>
<glyph name="H" format="1">
  <advance width="237"/>
  <unicode hex="0048"/>
  <outline>
    <contour>
      <point x="219" y="709" type="line"/>
      <point x="155" y="709" type="line"/>
      <point x="155" y="394" type="line"/>
      <point x="83" y="394" type="line"/>
      <point x="83" y="709" type="line"/>
      <point x="19" y="709" type="line"/>
      <point x="19" y="0" type="line"/>
      <point x="83" y="0" type="line"/>
      <point x="83" y="347" type="line"/>
      <point x="155" y="347" type="line"/>
      <point x="155" y="0" type="line"/>
      <point x="219" y="0" type="line"/>
    </contour>
  </outline>
</glyph>
<glyph name="J" format="1">
  <advance width="134"/>
  <unicode hex="004A"/>
  <outline>
    <contour>
      <point x="11" y="-7" type="line"/>
      <point x="19" y="-11"/>
      <point x="29" y="-14"/>
      <point x="47" y="-14" type="curve" smooth="yes"/>
      <point x="92" y="-14"/>
      <point x="116" y="23"/>
      <point x="116" y="147" type="curve" smooth="yes"/>
      <point x="116" y="709" type="line"/>
      <point x="51" y="709" type="line"/>
      <point x="51" y="142" type="line" smooth="yes"/>
      <point x="51" y="51"/>
      <point x="45" y="33"/>
      <point x="32" y="33" type="curve" smooth="yes"/>
      <point x="27" y="33"/>
      <point x="22" y="37"/>
      <point x="18" y="41" type="curve"/>
    </contour>
  </outline>
</glyph>
<glyph name="K" format="1">
  <advance width="241"/>
  <unicode hex="004B"/>
  <outline>
    <contour>
      <point x="80" y="340" type="line"/>
      <point x="82" y="405"/>
      <point x="83" y="438"/>
      <point x="83" y="522" type="curve" smooth="yes"/>
      <point x="83" y="709" type="line"/>
      <point x="19" y="709" type="line"/>
      <point x="19" y="0" type="line"/>
      <point x="83" y="0" type="line"/>
      <point x="83" y="243" type="line"/>
      <point x="105" y="337" type="line"/>
      <point x="181" y="0" type="line"/>
      <point x="246" y="0" type="line"/>
      <point x="139" y="405" type="line"/>
      <point x="227" y="709" type="line"/>
      <point x="166" y="709" type="line"/>
      <point x="122" y="522" type="line" smooth="yes"/>
      <point x="102" y="438"/>
      <point x="95" y="407"/>
      <point x="82" y="340" type="curve"/>
    </contour>
  </outline>
</glyph>
<glyph name="L" format="1">
  <advance width="163"/>
  <unicode hex="004C"/>
  <outline>
    <contour>
      <point x="157" y="48" type="line"/>
      <point x="83" y="48" type="line"/>
      <point x="83" y="709" type="line"/>
      <point x="19" y="709" type="line"/>
      <point x="19" y="0" type="line"/>
      <point x="157" y="0" type="line"/>
    </contour>
  </outline>
</glyph>
<glyph name="M" format="1">
  <advance width="321"/>
  <unicode hex="004D"/>
  <outline>
    <contour>
      <point x="160" y="75" type="line"/>
      <point x="155" y="193"/>
      <point x="138" y="392"/>
      <point x="110" y="709" type="curve"/>
      <point x="19" y="709" type="line"/>
      <point x="19" y="0" type="line"/>
      <point x="76" y="0" type="line"/>
      <point x="76" y="318"/>
      <point x="75" y="534"/>
      <point x="70" y="647" type="curve"/>
      <point x="72" y="647" type="line"/>
      <point x="79" y="534"/>
      <point x="97" y="318"/>
      <point x="125" y="0" type="curve"/>
      <point x="195" y="0" type="line"/>
      <point x="225" y="324"/>
      <point x="243" y="536"/>
      <point x="249" y="647" type="curve"/>
      <point x="251" y="647" type="line"/>
      <point x="246" y="535"/>
      <point x="245" y="317"/>
      <point x="245" y="0" type="curve"/>
      <point x="303" y="0" type="line"/>
      <point x="303" y="709" type="line"/>
      <point x="211" y="709" type="line"/>
      <point x="183" y="396"/>
      <point x="166" y="194"/>
      <point x="162" y="75" type="curve"/>
    </contour>
  </outline>
</glyph>
<glyph name="N" format="1">
  <advance width="251"/>
  <unicode hex="004E"/>
  <outline>
    <contour>
      <point x="180" y="94" type="line"/>
      <point x="170" y="200"/>
      <point x="139" y="416"/>
      <point x="97" y="709" type="curve"/>
      <point x="19" y="709" type="line"/>
      <point x="19" y="0" type="line"/>
      <point x="76" y="0" type="line"/>
      <point x="76" y="298"/>
      <point x="74" y="511"/>
      <point x="70" y="615" type="curve"/>
      <point x="73" y="615" type="line"/>
      <point x="80" y="512"/>
      <point x="111" y="303"/>
      <point x="156" y="0" type="curve"/>
      <point x="232" y="0" type="line"/>
      <point x="232" y="709" type="line"/>
      <point x="175" y="709" type="line"/>
      <point x="175" y="417"/>
      <point x="177" y="201"/>
      <point x="183" y="94" type="curve"/>
    </contour>
  </outline>
</glyph>
<glyph name="O" format="1">
  <advance width="247"/>
  <unicode hex="004F"/>
  <outline>
    <contour>
      <point x="16" y="354" type="line"/>
      <point x="16" y="77"/>
      <point x="51" y="-14"/>
      <point x="124" y="-14" type="curve" smooth="yes"/>
      <point x="196" y="-14"/>
      <point x="231" y="77"/>
      <point x="231" y="354" type="curve" smooth="yes"/>
      <point x="231" y="632"/>
      <point x="196" y="723"/>
      <point x="124" y="723" type="curve" smooth="yes"/>
      <point x="51" y="723"/>
      <point x="16" y="632"/>
      <point x="16" y="355" type="curve"/>
    </contour>
    <contour>
      <point x="124" y="676" type="line"/>
      <point x="149" y="676"/>
      <point x="166" y="607"/>
      <point x="166" y="354" type="curve" smooth="yes"/>
      <point x="166" y="103"/>
      <point x="149" y="33"/>
      <point x="124" y="33" type="curve" smooth="yes"/>
      <point x="99" y="33"/>
      <point x="82" y="103"/>
      <point x="82" y="354" type="curve" smooth="yes"/>
      <point x="82" y="607"/>
      <point x="99" y="676"/>
      <point x="123" y="676" type="curve"/>
    </contour>
  </outline>
</glyph>
<glyph name="P" format="1">
  <advance width="223"/>
  <unicode hex="0050"/>
  <outline>
    <contour>
      <point x="83" y="0" type="line"/>
      <point x="83" y="312" type="line"/>
      <point x="80" y="312" type="line"/>
      <point x="156" y="312"/>
      <point x="211" y="357"/>
      <point x="211" y="512" type="curve" smooth="yes"/>
      <point x="211" y="649"/>
      <point x="169" y="709"/>
      <point x="84" y="709" type="curve" smooth="yes"/>
      <point x="19" y="709" type="line"/>
      <point x="19" y="0" type="line"/>
    </contour>
    <contour>
      <point x="83" y="360" type="line"/>
      <point x="83" y="661" type="line"/>
      <point x="88" y="661" type="line" smooth="yes"/>
      <point x="124" y="661"/>
      <point x="146" y="624"/>
      <point x="146" y="513" type="curve" smooth="yes"/>
      <point x="146" y="389"/>
      <point x="117" y="361"/>
      <point x="84" y="360" type="curve" smooth="yes"/>
    </contour>
  </outline>
</glyph>
<glyph name="Q" format="1">
  <advance width="247"/>
  <unicode hex="0051"/>
  <outline>
    <contour>
      <point x="196" y="38" type="line"/>
      <point x="220" y="91"/>
      <point x="231" y="191"/>
      <point x="231" y="354" type="curve" smooth="yes"/>
      <point x="231" y="632"/>
      <point x="196" y="723"/>
      <point x="124" y="723" type="curve" smooth="yes"/>
      <point x="51" y="723"/>
      <point x="16" y="632"/>
      <point x="16" y="354" type="curve" smooth="yes"/>
      <point x="16" y="77"/>
      <point x="51" y="-14"/>
      <point x="124" y="-14" type="curve" smooth="yes"/>
      <point x="139" y="-14"/>
      <point x="154" y="-8"/>
      <point x="165" y="9" type="curve"/>
      <point x="216" y="-101" type="line"/>
      <point x="259" y="-70" type="line"/>
    </contour>
    <contour>
      <point x="124" y="676" type="line"/>
      <point x="149" y="676"/>
      <point x="166" y="607"/>
      <point x="166" y="354" type="curve" smooth="yes"/>
      <point x="166" y="103"/>
      <point x="149" y="33"/>
      <point x="124" y="33" type="curve" smooth="yes"/>
      <point x="99" y="33"/>
      <point x="82" y="103"/>
      <point x="82" y="354" type="curve" smooth="yes"/>
      <point x="82" y="607"/>
      <point x="99" y="676"/>
      <point x="123" y="676" type="curve"/>
    </contour>
  </outline>
</glyph>
<glyph name="R" format="1">
  <advance width="229"/>
  <unicode hex="0052"/>
  <outline>
    <contour>
      <point x="240" y="0" type="line"/>
      <point x="175" y="0" type="line"/>
      <point x="82" y="322" type="line"/>
      <point x="83" y="322" type="line"/>
      <point x="83" y="0" type="line"/>
      <point x="19" y="0" type="line"/>
      <point x="19" y="709" type="line"/>
      <point x="79" y="709" type="line" smooth="yes"/>
      <point x="150" y="709"/>
      <point x="210" y="669"/>
      <point x="210" y="512" type="curve" smooth="yes"/>
      <point x="210" y="377"/>
      <point x="165" y="347"/>
      <point x="132" y="334" type="curve"/>
    </contour>
    <contour>
      <point x="80" y="369" type="line" smooth="yes"/>
      <point x="113" y="369"/>
      <point x="138" y="397"/>
      <point x="138" y="493" type="curve" smooth="yes"/>
      <point x="143" y="590"/>
      <point x="122" y="625"/>
      <point x="92" y="640" type="curve" smooth="yes"/>
      <point x="92" y="653"/>
      <point x="88" y="661"/>
      <point x="82" y="661" type="curve"/>
      <point x="83" y="410" type="line"/>
    </contour>
  </outline>
</glyph>
<glyph name="S" format="1">
  <advance width="222"/>
  <unicode hex="0053"/>
  <outline>
    <contour>
      <point x="206" y="591" type="line"/>
      <point x="207" y="655"/>
      <point x="184" y="723"/>
      <point x="116" y="723" type="curve" smooth="yes"/>
      <point x="74" y="723"/>
      <point x="52" y="696"/>
      <point x="37" y="662" type="curve" smooth="yes"/>
      <point x="23" y="635"/>
      <point x="17" y="601"/>
      <point x="17" y="563" type="curve" smooth="yes"/>
      <point x="17" y="518"/>
      <point x="26" y="478"/>
      <point x="38" y="447" type="curve" smooth="yes"/>
      <point x="50" y="417"/>
      <point x="66" y="388"/>
      <point x="91" y="340" type="curve" smooth="yes"/>
      <point x="119" y="287"/>
      <point x="127" y="269"/>
      <point x="134" y="250" type="curve" smooth="yes"/>
      <point x="143" y="224"/>
      <point x="149" y="196"/>
      <point x="149" y="161" type="curve" smooth="yes"/>
      <point x="149" y="135"/>
      <point x="148" y="106"/>
      <point x="143" y="84" type="curve" smooth="yes"/>
      <point x="138" y="62"/>
      <point x="128" y="33"/>
      <point x="106" y="33" type="curve" smooth="yes"/>
      <point x="70" y="33"/>
      <point x="71" y="91"/>
      <point x="72" y="124" type="curve"/>
      <point x="11" y="124" type="line"/>
      <point x="9" y="47"/>
      <point x="32" y="-14"/>
      <point x="109" y="-14" type="curve" smooth="yes"/>
      <point x="165" y="-14"/>
      <point x="185" y="34"/>
      <point x="196" y="61" type="curve" smooth="yes"/>
      <point x="210" y="92"/>
      <point x="214" y="131"/>
      <point x="214" y="168" type="curve" smooth="yes"/>
      <point x="214" y="217"/>
      <point x="203" y="254"/>
      <point x="192" y="283" type="curve" smooth="yes"/>
      <point x="185" y="303"/>
      <point x="171" y="327"/>
      <point x="145" y="378" type="curve" smooth="yes"/>
      <point x="124" y="420"/>
      <point x="111" y="447"/>
      <point x="99" y="473" type="curve" smooth="yes"/>
      <point x="87" y="498"/>
      <point x="81" y="533"/>
      <point x="81" y="568" type="curve" smooth="yes"/>
      <point x="81" y="592"/>
      <point x="82" y="617"/>
      <point x="87" y="634" type="curve" smooth="yes"/>
      <point x="91" y="655"/>
      <point x="101" y="676"/>
      <point x="116" y="676" type="curve" smooth="yes"/>
      <point x="148" y="676"/>
      <point x="148" y="615"/>
      <point x="147" y="592" type="curve"/>
    </contour>
  </outline>
</glyph>
<glyph name="T" format="1">
  <advance width="213"/>
  <unicode hex="0054"/>
  <outline>
    <contour>
      <point x="206" y="709" type="line"/>
      <point x="7" y="709" type="line"/>
      <point x="7" y="661" type="line"/>
      <point x="74" y="661" type="line"/>
      <point x="74" y="0" type="line"/>
      <point x="139" y="0" type="line"/>
      <point x="139" y="661" type="line"/>
      <point x="206" y="661" type="line"/>
    </contour>
  </outline>
</glyph>
<glyph name="U" format="1">
  <advance width="245"/>
  <unicode hex="0055"/>
  <outline>
    <contour>
      <point x="228" y="709" type="line"/>
      <point x="163" y="709" type="line"/>
      <point x="163" y="165" type="line" smooth="yes"/>
      <point x="163" y="96"/>
      <point x="162" y="33"/>
      <point x="121" y="33" type="curve" smooth="yes"/>
      <point x="83" y="33"/>
      <point x="82" y="98"/>
      <point x="82" y="165" type="curve" smooth="yes"/>
      <point x="82" y="709" type="line"/>
      <point x="17" y="709" type="line"/>
      <point x="17" y="161" type="line" smooth="yes"/>
      <point x="17" y="59"/>
      <point x="30" y="-14"/>
      <point x="121" y="-14" type="curve" smooth="yes"/>
      <point x="217" y="-14"/>
      <point x="228" y="63"/>
      <point x="228" y="161" type="curve" smooth="yes"/>
    </contour>
  </outline>
</glyph>
<glyph name="V" format="1">
  <advance width="212"/>
  <unicode hex="0056"/>
  <outline>
    <contour>
      <point x="105" y="46" type="line"/>
      <point x="98" y="169"/>
      <point x="91" y="259"/>
      <point x="85" y="352" type="curve" smooth="yes"/>
      <point x="60" y="709" type="line"/>
      <point x="-2" y="709" type="line"/>
      <point x="64" y="0" type="line"/>
      <point x="149" y="0" type="line"/>
      <point x="214" y="709" type="line"/>
      <point x="151" y="709" type="line"/>
      <point x="128" y="356" type="line" smooth="yes"/>
      <point x="121" y="263"/>
      <point x="114" y="169"/>
      <point x="109" y="46" type="curve"/>
    </contour>
  </outline>
</glyph>
<glyph name="W" format="1">
  <advance width="308"/>
  <unicode hex="0057"/>
  <outline>
    <contour>
      <point x="156" y="651" type="line"/>
      <point x="157" y="523"/>
      <point x="160" y="423"/>
      <point x="165" y="317" type="curve" smooth="yes"/>
      <point x="178" y="0" type="line"/>
      <point x="260" y="0" type="line"/>
      <point x="311" y="709" type="line"/>
      <point x="252" y="709" type="line"/>
      <point x="236" y="381" type="line"/>
      <point x="231" y="275"/>
      <point x="226" y="174"/>
      <point x="223" y="56" type="curve"/>
      <point x="220" y="56" type="line"/>
      <point x="217" y="174"/>
      <point x="214" y="276"/>
      <point x="210" y="382" type="curve" smooth="yes"/>
      <point x="197" y="709" type="line"/>
      <point x="111" y="709" type="line"/>
      <point x="100" y="386" type="line"/>
      <point x="96" y="281"/>
      <point x="91" y="175"/>
      <point x="92" y="56" type="curve"/>
      <point x="89" y="56" type="line"/>
      <point x="85" y="173"/>
      <point x="78" y="280"/>
      <point x="73" y="386" type="curve" smooth="yes"/>
      <point x="57" y="709" type="line"/>
      <point x="-4" y="709" type="line"/>
      <point x="50" y="0" type="line"/>
      <point x="132" y="0" type="line"/>
      <point x="143" y="309" type="line"/>
      <point x="147" y="415"/>
      <point x="151" y="521"/>
      <point x="152" y="651" type="curve"/>
    </contour>
  </outline>
</glyph>
<glyph name="X" format="1">
  <advance width="210"/>
  <unicode hex="0058"/>
  <outline>
    <contour>
      <point x="106" y="412" type="line"/>
      <point x="104" y="412" type="line"/>
      <point x="58" y="709" type="line"/>
      <point x="-4" y="709" type="line"/>
      <point x="70" y="364" type="line"/>
      <point x="-5" y="0" type="line"/>
      <point x="56" y="0" type="line"/>
      <point x="104" y="303" type="line"/>
      <point x="106" y="303" type="line"/>
      <point x="154" y="0" type="line"/>
      <point x="215" y="0" type="line"/>
      <point x="139" y="364" type="line"/>
      <point x="213" y="709" type="line"/>
      <point x="152" y="709" type="line"/>
    </contour>
  </outline>
</glyph>
<glyph name="Y" format="1">
  <advance width="197"/>
  <unicode hex="0059"/>
  <outline>
    <contour>
      <point x="201" y="709" type="line"/>
      <point x="137" y="709" type="line"/>
      <point x="118" y="532" type="line" smooth="yes"/>
      <point x="112" y="471"/>
      <point x="105" y="409"/>
      <point x="102" y="338" type="curve"/>
      <point x="100" y="338" type="line"/>
      <point x="93" y="409"/>
      <point x="87" y="469"/>
      <point x="80" y="531" type="curve" smooth="yes"/>
      <point x="60" y="709" type="line"/>
      <point x="-4" y="709" type="line"/>
      <point x="68" y="290" type="line"/>
      <point x="68" y="0" type="line"/>
      <point x="132" y="0" type="line"/>
      <point x="132" y="290" type="line"/>
    </contour>
  </outline>
</glyph>
<glyph name="Z" format="1">
  <advance width="175"/>
  <unicode hex="005A"/>
  <outline>
    <contour>
      <point x="4" y="0" type="line"/>
      <point x="169" y="0" type="line"/>
      <point x="169" y="48" type="line"/>
      <point x="64" y="48" type="line"/>
      <point x="166" y="668" type="line"/>
      <point x="166" y="709" type="line"/>
      <point x="12" y="709" type="line"/>
      <point x="12" y="661" type="line"/>
      <point x="109" y="661" type="line"/>
      <point x="4" y="40" type="line"/>
    </contour>
  </outline>
</glyph>
<glyph name="bracketleft" format="1">
  <advance width="114"/>
  <unicode hex="005B"/>
  <outline>
    <contour>
      <point x="131" y="-156" type="line"/>
      <point x="131" y="-110" type="line"/>
      <point x="88" y="-110" type="line"/>
      <point x="88" y="693" type="line"/>
      <point x="131" y="693" type="line"/>
      <point x="131" y="739" type="line"/>
      <point x="27" y="739" type="line"/>
      <point x="27" y="-156" type="line"/>
    </contour>
  </outline>
</glyph>
<glyph name="backslash" format="1">
  <advance width="174"/>
  <unicode hex="005C"/>
  <outline>
    <contour>
      <point x="-5" y="739" type="line"/>
      <point x="130" y="-12" type="line"/>
      <point x="181" y="-12" type="line"/>
      <point x="46" y="739" type="line"/>
    </contour>
  </outline>
</glyph>
<glyph name="bracketright" format="1">
  <advance width="112"/>
  <unicode hex="005D"/>
  <outline>
    <contour>
      <point x="-17" y="-156" type="line"/>
      <point x="87" y="-156" type="line"/>
      <point x="87" y="739" type="line"/>
      <point x="-17" y="739" type="line"/>
      <point x="-17" y="693" type="line"/>
      <point x="27" y="693" type="line"/>
      <point x="27" y="-110" type="line"/>
      <point x="-17" y="-110" type="line"/>
    </contour>
  </outline>
</glyph>
<glyph name="a" format="1">
  <advance width="215"/>
  <unicode hex="0061"/>
  <outline>
    <contour>
      <point x="202" y="0" type="line"/>
      <point x="202" y="4" type="line"/>
      <point x="196" y="10"/>
      <point x="194" y="37"/>
      <point x="194" y="75" type="curve" smooth="yes"/>
      <point x="194" y="343" type="line" smooth="yes"/>
      <point x="194" y="509"/>
      <point x="166" y="544"/>
      <point x="108" y="544" type="curve" smooth="yes"/>
      <point x="41" y="544"/>
      <point x="23" y="476"/>
      <point x="23" y="401" type="curve"/>
      <point x="80" y="402" type="line"/>
      <point x="80" y="449"/>
      <point x="86" y="503"/>
      <point x="107" y="503" type="curve" smooth="yes"/>
      <point x="133" y="503"/>
      <point x="134" y="450"/>
      <point x="134" y="364" type="curve" smooth="yes"/>
      <point x="134" y="346" type="line"/>
      <point x="30" y="307"/>
      <point x="14" y="215"/>
      <point x="14" y="129" type="curve" smooth="yes"/>
      <point x="14" y="26"/>
      <point x="43" y="-12"/>
      <point x="85" y="-12" type="curve" smooth="yes"/>
      <point x="117" y="-12"/>
      <point x="130" y="14"/>
      <point x="135" y="24" type="curve"/>
      <point x="137" y="24" type="line"/>
      <point x="138" y="17"/>
      <point x="140" y="5"/>
      <point x="144" y="0" type="curve"/>
    </contour>
    <contour>
      <point x="134" y="80" type="line"/>
      <point x="128" y="54"/>
      <point x="117" y="33"/>
      <point x="103" y="33" type="curve" smooth="yes"/>
      <point x="86" y="33"/>
      <point x="76" y="63"/>
      <point x="76" y="135" type="curve" smooth="yes"/>
      <point x="76" y="196"/>
      <point x="81" y="276"/>
      <point x="134" y="305" type="curve"/>
    </contour>
  </outline>
</glyph>
<glyph name="b" format="1">
  <advance width="223"/>
  <unicode hex="0062"/>
  <outline>
    <contour>
      <point x="19" y="0" type="line"/>
      <point x="78" y="0" type="line"/>
      <point x="77" y="38" type="line"/>
      <point x="79" y="38" type="line"/>
      <point x="88" y="17"/>
      <point x="102" y="-12"/>
      <point x="128" y="-12" type="curve" smooth="yes"/>
      <point x="181" y="-12"/>
      <point x="206" y="72"/>
      <point x="206" y="265" type="curve" smooth="yes"/>
      <point x="206" y="470"/>
      <point x="179" y="544"/>
      <point x="130" y="544" type="curve" smooth="yes"/>
      <point x="100" y="544"/>
      <point x="88" y="514"/>
      <point x="80" y="495" type="curve"/>
      <point x="79" y="495" type="line"/>
      <point x="79" y="727" type="line"/>
      <point x="19" y="727" type="line"/>
    </contour>
    <contour>
      <point x="79" y="423" type="line"/>
      <point x="83" y="452"/>
      <point x="93" y="493"/>
      <point x="110" y="493" type="curve" smooth="yes"/>
      <point x="129" y="493"/>
      <point x="144" y="429"/>
      <point x="145" y="263" type="curve" smooth="yes"/>
      <point x="146" y="102"/>
      <point x="129" y="39"/>
      <point x="110" y="39" type="curve" smooth="yes"/>
      <point x="95" y="39"/>
      <point x="84" y="78"/>
      <point x="79" y="123" type="curve"/>
    </contour>
  </outline>
</glyph>
<glyph name="c" format="1">
  <advance width="209"/>
  <unicode hex="0063"/>
  <outline>
    <contour>
      <point x="195" y="424" type="line"/>
      <point x="197" y="496"/>
      <point x="169" y="544"/>
      <point x="116" y="544" type="curve" smooth="yes"/>
      <point x="49" y="544"/>
      <point x="16" y="467"/>
      <point x="16" y="268" type="curve" smooth="yes"/>
      <point x="16" y="57"/>
      <point x="40" y="-12"/>
      <point x="113" y="-12" type="curve" smooth="yes"/>
      <point x="164" y="-12"/>
      <point x="198" y="32"/>
      <point x="196" y="128" type="curve"/>
      <point x="136" y="127" type="line"/>
      <point x="138" y="61"/>
      <point x="128" y="31"/>
      <point x="113" y="31" type="curve" smooth="yes"/>
      <point x="89" y="31"/>
      <point x="78" y="70"/>
      <point x="78" y="268" type="curve" smooth="yes"/>
      <point x="78" y="433"/>
      <point x="91" y="501"/>
      <point x="115" y="501" type="curve" smooth="yes"/>
      <point x="134" y="501"/>
      <point x="137" y="467"/>
      <point x="136" y="424" type="curve"/>
    </contour>
  </outline>
</glyph>
<glyph name="d" format="1">
  <advance width="223"/>
  <unicode hex="0064"/>
  <outline>
    <contour>
      <point x="145" y="38" type="line"/>
      <point x="144" y="0" type="line"/>
      <point x="204" y="0" type="line"/>
      <point x="204" y="727" type="line"/>
      <point x="144" y="727" type="line"/>
      <point x="144" y="499" type="line"/>
      <point x="143" y="499" type="line"/>
      <point x="133" y="516"/>
      <point x="122" y="544"/>
      <point x="95" y="544" type="curve" smooth="yes"/>
      <point x="44" y="544"/>
      <point x="16" y="472"/>
      <point x="16" y="265" type="curve" smooth="yes"/>
      <point x="16" y="62"/>
      <point x="46" y="-12"/>
      <point x="94" y="-12" type="curve" smooth="yes"/>
      <point x="121" y="-12"/>
      <point x="134" y="14"/>
      <point x="143" y="38" type="curve"/>
    </contour>
    <contour>
      <point x="112" y="39" type="line"/>
      <point x="95" y="39"/>
      <point x="76" y="99"/>
      <point x="78" y="263" type="curve" smooth="yes"/>
      <point x="79" y="429"/>
      <point x="93" y="493"/>
      <point x="112" y="493" type="curve" smooth="yes"/>
      <point x="129" y="493"/>
      <point x="140" y="451"/>
      <point x="144" y="423" type="curve"/>
      <point x="144" y="123" type="line"/>
      <point x="139" y="77"/>
      <point x="128" y="39"/>
      <point x="113" y="39" type="curve"/>
    </contour>
  </outline>
</glyph>
<glyph name="e" format="1">
  <advance width="219"/>
  <unicode hex="0065"/>
  <outline>
    <contour>
      <point x="202" y="258" type="line"/>
      <point x="202" y="369"/>
      <point x="193" y="449"/>
      <point x="169" y="499" type="curve" smooth="yes"/>
      <point x="154" y="529"/>
      <point x="134" y="544"/>
      <point x="109" y="544" type="curve" smooth="yes"/>
      <point x="85" y="544"/>
      <point x="64" y="530"/>
      <point x="47" y="495" type="curve" smooth="yes"/>
      <point x="25" y="452"/>
      <point x="16" y="375"/>
      <point x="16" y="271" type="curve" smooth="yes"/>
      <point x="16" y="152"/>
      <point x="27" y="81"/>
      <point x="45" y="41" type="curve" smooth="yes"/>
      <point x="63" y="0"/>
      <point x="89" y="-12"/>
      <point x="113" y="-12" type="curve" smooth="yes"/>
      <point x="143" y="-12"/>
      <point x="164" y="1"/>
      <point x="178" y="25" type="curve" smooth="yes"/>
      <point x="194" y="52"/>
      <point x="201" y="88"/>
      <point x="204" y="125" type="curve"/>
      <point x="144" y="124" type="line"/>
      <point x="142" y="59"/>
      <point x="135" y="29"/>
      <point x="116" y="29" type="curve" smooth="yes"/>
      <point x="90" y="29"/>
      <point x="78" y="75"/>
      <point x="78" y="258" type="curve"/>
    </contour>
    <contour>
      <point x="78" y="296" type="line"/>
      <point x="78" y="487"/>
      <point x="103" y="503"/>
      <point x="110" y="503" type="curve" smooth="yes"/>
      <point x="124" y="503"/>
      <point x="141" y="446"/>
      <point x="141" y="296" type="curve"/>
    </contour>
  </outline>
</glyph>
<glyph name="f" format="1">
  <advance width="98"/>
  <unicode hex="0066"/>
  <outline>
    <contour>
      <point x="116" y="734" type="line"/>
      <point x="113" y="736"/>
      <point x="110" y="737"/>
      <point x="105" y="738" type="curve" smooth="yes"/>
      <point x="101" y="739"/>
      <point x="95" y="739"/>
      <point x="89" y="739" type="curve" smooth="yes"/>
      <point x="67" y="739"/>
      <point x="51" y="730"/>
      <point x="40" y="716" type="curve" smooth="yes"/>
      <point x="21" y="690"/>
      <point x="17" y="642"/>
      <point x="17" y="578" type="curve" smooth="yes"/>
      <point x="17" y="532" type="line"/>
      <point x="-3" y="532" type="line"/>
      <point x="-3" y="488" type="line"/>
      <point x="17" y="488" type="line"/>
      <point x="17" y="0" type="line"/>
      <point x="78" y="0" type="line"/>
      <point x="78" y="488" type="line"/>
      <point x="99" y="488" type="line"/>
      <point x="99" y="532" type="line"/>
      <point x="78" y="532" type="line"/>
      <point x="78" y="581" type="line" smooth="yes"/>
      <point x="78" y="639"/>
      <point x="80" y="671"/>
      <point x="88" y="684" type="curve" smooth="yes"/>
      <point x="92" y="691"/>
      <point x="96" y="694"/>
      <point x="101" y="694" type="curve" smooth="yes"/>
      <point x="104" y="694"/>
      <point x="106" y="693"/>
      <point x="108" y="693" type="curve" smooth="yes"/>
      <point x="109" y="692"/>
      <point x="111" y="691"/>
      <point x="112" y="691" type="curve"/>
    </contour>
  </outline>
</glyph>
<glyph name="g" format="1">
  <advance width="222"/>
  <unicode hex="0067"/>
  <outline>
    <contour>
      <point x="146" y="508" type="line"/>
      <point x="144" y="508" type="line"/>
      <point x="136" y="531"/>
      <point x="120" y="544"/>
      <point x="102" y="544" type="curve" smooth="yes"/>
      <point x="56" y="544"/>
      <point x="16" y="480"/>
      <point x="16" y="262" type="curve" smooth="yes"/>
      <point x="16" y="75"/>
      <point x="42" y="-12"/>
      <point x="98" y="-12" type="curve" smooth="yes"/>
      <point x="120" y="-12"/>
      <point x="135" y="2"/>
      <point x="142" y="16" type="curve"/>
      <point x="144" y="16" type="line"/>
      <point x="144" y="2" type="line"/>
      <point x="144" y="-101"/>
      <point x="142" y="-154"/>
      <point x="133" y="-187" type="curve" smooth="yes"/>
      <point x="128" y="-207"/>
      <point x="120" y="-218"/>
      <point x="111" y="-218" type="curve" smooth="yes"/>
      <point x="106" y="-218"/>
      <point x="96" y="-214"/>
      <point x="91" y="-197" type="curve" smooth="yes"/>
      <point x="88" y="-184"/>
      <point x="87" y="-169"/>
      <point x="86" y="-131" type="curve"/>
      <point x="27" y="-130" type="line"/>
      <point x="26" y="-176"/>
      <point x="34" y="-206"/>
      <point x="46" y="-226" type="curve" smooth="yes"/>
      <point x="61" y="-250"/>
      <point x="84" y="-261"/>
      <point x="109" y="-261" type="curve" smooth="yes"/>
      <point x="139" y="-261"/>
      <point x="164" y="-248"/>
      <point x="179" y="-215" type="curve" smooth="yes"/>
      <point x="198" y="-170"/>
      <point x="204" y="-117"/>
      <point x="204" y="-1" type="curve" smooth="yes"/>
      <point x="204" y="532" type="line"/>
      <point x="144" y="532" type="line"/>
    </contour>
    <contour>
      <point x="78" y="261" type="line"/>
      <point x="78" y="456"/>
      <point x="108" y="492"/>
      <point x="120" y="492" type="curve" smooth="yes"/>
      <point x="129" y="492"/>
      <point x="138" y="470"/>
      <point x="144" y="444" type="curve"/>
      <point x="144" y="88" type="line"/>
      <point x="142" y="62"/>
      <point x="133" y="40"/>
      <point x="118" y="40" type="curve" smooth="yes"/>
      <point x="90" y="40"/>
      <point x="78" y="119"/>
      <point x="78" y="260" type="curve"/>
    </contour>
  </outline>
</glyph>
<glyph name="h" format="1">
  <advance width="219"/>
  <unicode hex="0068"/>
  <outline>
    <contour>
      <point x="203" y="0" type="line"/>
      <point x="203" y="414" type="line" smooth="yes"/>
      <point x="203" y="468"/>
      <point x="196" y="499"/>
      <point x="186" y="519" type="curve" smooth="yes"/>
      <point x="175" y="539"/>
      <point x="157" y="544"/>
      <point x="142" y="544" type="curve" smooth="yes"/>
      <point x="126" y="544"/>
      <point x="113" y="535"/>
      <point x="103" y="523" type="curve" smooth="yes"/>
      <point x="93" y="511"/>
      <point x="86" y="496"/>
      <point x="81" y="485" type="curve"/>
      <point x="79" y="485" type="line"/>
      <point x="79" y="727" type="line"/>
      <point x="19" y="727" type="line"/>
      <point x="19" y="0" type="line"/>
      <point x="79" y="0" type="line"/>
      <point x="79" y="423" type="line"/>
      <point x="87" y="449"/>
      <point x="93" y="465"/>
      <point x="100" y="476" type="curve" smooth="yes"/>
      <point x="106" y="488"/>
      <point x="112" y="493"/>
      <point x="119" y="493" type="curve" smooth="yes"/>
      <point x="127" y="493"/>
      <point x="131" y="487"/>
      <point x="135" y="478" type="curve" smooth="yes"/>
      <point x="141" y="461"/>
      <point x="142" y="424"/>
      <point x="142" y="381" type="curve" smooth="yes"/>
      <point x="142" y="0" type="line"/>
    </contour>
  </outline>
</glyph>
<glyph name="i" format="1">
  <advance width="97"/>
  <unicode hex="0069"/>
  <outline>
    <contour>
      <point x="79" y="644" type="line"/>
      <point x="79" y="730" type="line"/>
      <point x="18" y="730" type="line"/>
      <point x="18" y="644" type="line"/>
    </contour>
    <contour>
      <point x="79" y="532" type="line"/>
      <point x="18" y="532" type="line"/>
      <point x="18" y="0" type="line"/>
      <point x="79" y="0" type="line"/>
    </contour>
  </outline>
</glyph>
<glyph name="j" format="1">
  <advance width="97"/>
  <unicode hex="006A"/>
  <outline>
    <contour>
      <point x="79" y="644" type="line"/>
      <point x="79" y="730" type="line"/>
      <point x="18" y="730" type="line"/>
      <point x="18" y="644" type="line"/>
    </contour>
    <contour>
      <point x="-33" y="-221" type="line"/>
      <point x="-27" y="-224"/>
      <point x="-20" y="-226"/>
      <point x="-14" y="-228" type="curve" smooth="yes"/>
      <point x="-8" y="-229"/>
      <point x="-2" y="-230"/>
      <point x="7" y="-230" type="curve" smooth="yes"/>
      <point x="28" y="-230"/>
      <point x="46" y="-219"/>
      <point x="59" y="-195" type="curve" smooth="yes"/>
      <point x="74" y="-167"/>
      <point x="79" y="-119"/>
      <point x="79" y="-46" type="curve" smooth="yes"/>
      <point x="79" y="532" type="line"/>
      <point x="18" y="532" type="line"/>
      <point x="18" y="-61" type="line" smooth="yes"/>
      <point x="18" y="-114"/>
      <point x="16" y="-148"/>
      <point x="9" y="-168" type="curve" smooth="yes"/>
      <point x="6" y="-177"/>
      <point x="1" y="-184"/>
      <point x="-5" y="-184" type="curve" smooth="yes"/>
      <point x="-9" y="-184"/>
      <point x="-12" y="-183"/>
      <point x="-15" y="-182" type="curve" smooth="yes"/>
      <point x="-16" y="-181"/>
      <point x="-20" y="-179"/>
      <point x="-21" y="-177" type="curve"/>
    </contour>
  </outline>
</glyph>
<glyph name="k" format="1">
  <advance width="189"/>
  <unicode hex="006B"/>
  <outline>
    <contour>
      <point x="120" y="324" type="line"/>
      <point x="185" y="532" type="line"/>
      <point x="125" y="532" type="line"/>
      <point x="102" y="428" type="line"/>
      <point x="95" y="394"/>
      <point x="86" y="357"/>
      <point x="80" y="318" type="curve"/>
      <point x="76" y="318" type="line"/>
      <point x="78" y="358"/>
      <point x="79" y="389"/>
      <point x="79" y="429" type="curve" smooth="yes"/>
      <point x="79" y="727" type="line"/>
      <point x="19" y="727" type="line"/>
      <point x="19" y="0" type="line"/>
      <point x="79" y="0" type="line"/>
      <point x="79" y="230" type="line"/>
      <point x="87" y="265" type="line"/>
      <point x="132" y="0" type="line"/>
      <point x="197" y="0" type="line"/>
    </contour>
  </outline>
</glyph>
<glyph name="m" format="1">
  <advance width="324"/>
  <unicode hex="006D"/>
  <outline>
    <contour>
      <point x="307" y="0" type="line"/>
      <point x="307" y="414" type="line"/>
      <point x="307" y="463"/>
      <point x="302" y="495"/>
      <point x="290" y="517" type="curve" smooth="yes"/>
      <point x="280" y="536"/>
      <point x="266" y="544"/>
      <point x="247" y="544" type="curve" smooth="yes"/>
      <point x="234" y="544"/>
      <point x="222" y="538"/>
      <point x="212" y="528" type="curve" smooth="yes"/>
      <point x="202" y="517"/>
      <point x="195" y="501"/>
      <point x="189" y="481" type="curve"/>
      <point x="186" y="481" type="line"/>
      <point x="184" y="498"/>
      <point x="180" y="513"/>
      <point x="173" y="524" type="curve" smooth="yes"/>
      <point x="164" y="537"/>
      <point x="154" y="544"/>
      <point x="139" y="544" type="curve" smooth="yes"/>
      <point x="127" y="544"/>
      <point x="115" y="538"/>
      <point x="106" y="528" type="curve" smooth="yes"/>
      <point x="95" y="518"/>
      <point x="88" y="502"/>
      <point x="80" y="482" type="curve"/>
      <point x="77" y="482" type="line"/>
      <point x="79" y="532" type="line"/>
      <point x="19" y="532" type="line"/>
      <point x="19" y="0" type="line"/>
      <point x="79" y="0" type="line"/>
      <point x="79" y="420" type="line"/>
      <point x="86" y="443"/>
      <point x="91" y="460"/>
      <point x="96" y="472" type="curve" smooth="yes"/>
      <point x="101" y="484"/>
      <point x="106" y="493"/>
      <point x="112" y="493" type="curve" smooth="yes"/>
      <point x="118" y="493"/>
      <point x="122" y="486"/>
      <point x="125" y="476" type="curve" smooth="yes"/>
      <point x="131" y="457"/>
      <point x="133" y="423"/>
      <point x="133" y="382" type="curve" smooth="yes"/>
      <point x="133" y="0" type="line"/>
      <point x="193" y="0" type="line"/>
      <point x="193" y="424" type="line"/>
      <point x="198" y="445"/>
      <point x="203" y="461"/>
      <point x="208" y="473" type="curve" smooth="yes"/>
      <point x="212" y="484"/>
      <point x="218" y="493"/>
      <point x="224" y="493" type="curve" smooth="yes"/>
      <point x="232" y="493"/>
      <point x="235" y="486"/>
      <point x="238" y="477" type="curve" smooth="yes"/>
      <point x="246" y="457"/>
      <point x="246" y="413"/>
      <point x="246" y="382" type="curve" smooth="yes"/>
      <point x="246" y="0" type="line"/>
    </contour>
  </outline>
</glyph>
<glyph name="n" format="1">
  <advance width="219"/>
  <unicode hex="006E"/>
  <outline>
    <contour>
      <point x="203" y="0" type="line"/>
      <point x="203" y="414" type="line"/>
      <point x="203" y="468"/>
      <point x="196" y="499"/>
      <point x="186" y="519" type="curve" smooth="yes"/>
      <point x="175" y="539"/>
      <point x="157" y="544"/>
      <point x="142" y="544" type="curve" smooth="yes"/>
      <point x="126" y="544"/>
      <point x="113" y="535"/>
      <point x="103" y="523" type="curve" smooth="yes"/>
      <point x="93" y="510"/>
      <point x="86" y="494"/>
      <point x="81" y="484" type="curve"/>
      <point x="77" y="484" type="line"/>
      <point x="79" y="532" type="line"/>
      <point x="19" y="532" type="line"/>
      <point x="19" y="0" type="line"/>
      <point x="79" y="0" type="line"/>
      <point x="79" y="423" type="line"/>
      <point x="87" y="449"/>
      <point x="93" y="465"/>
      <point x="100" y="476" type="curve" smooth="yes"/>
      <point x="106" y="486"/>
      <point x="110" y="493"/>
      <point x="117" y="493" type="curve" smooth="yes"/>
      <point x="127" y="493"/>
      <point x="131" y="486"/>
      <point x="135" y="477" type="curve" smooth="yes"/>
      <point x="141" y="459"/>
      <point x="142" y="425"/>
      <point x="142" y="382" type="curve" smooth="yes"/>
      <point x="142" y="0" type="line"/>
    </contour>
  </outline>
</glyph>
<glyph name="o" format="1">
  <advance width="223"/>
  <unicode hex="006F"/>
  <outline>
    <contour>
      <point x="207" y="266" type="line"/>
      <point x="207" y="502"/>
      <point x="155" y="544"/>
      <point x="111" y="544" type="curve" smooth="yes"/>
      <point x="68" y="544"/>
      <point x="16" y="502"/>
      <point x="16" y="266" type="curve" smooth="yes"/>
      <point x="16" y="53"/>
      <point x="48" y="-12"/>
      <point x="111" y="-12" type="curve" smooth="yes"/>
      <point x="176" y="-12"/>
      <point x="207" y="62"/>
      <point x="207" y="265" type="curve"/>
    </contour>
    <contour>
      <point x="111" y="31" type="line"/>
      <point x="96" y="31"/>
      <point x="78" y="69"/>
      <point x="78" y="266" type="curve" smooth="yes"/>
      <point x="78" y="460"/>
      <point x="95" y="501"/>
      <point x="111" y="501" type="curve" smooth="yes"/>
      <point x="128" y="501"/>
      <point x="145" y="461"/>
      <point x="145" y="266" type="curve" smooth="yes"/>
      <point x="145" y="84"/>
      <point x="131" y="31"/>
      <point x="112" y="31" type="curve"/>
    </contour>
  </outline>
</glyph>
<glyph name="p" format="1">
  <advance width="223"/>
  <unicode hex="0070"/>
  <outline>
    <contour>
      <point x="19" y="-248" type="line"/>
      <point x="79" y="-248" type="line"/>
      <point x="79" y="26" type="line"/>
      <point x="80" y="26" type="line"/>
      <point x="86" y="14"/>
      <point x="92" y="5"/>
      <point x="100" y="-2" type="curve" smooth="yes"/>
      <point x="110" y="-10"/>
      <point x="120" y="-12"/>
      <point x="128" y="-12" type="curve" smooth="yes"/>
      <point x="149" y="-12"/>
      <point x="166" y="3"/>
      <point x="179" y="35" type="curve" smooth="yes"/>
      <point x="192" y="69"/>
      <point x="206" y="138"/>
      <point x="206" y="265" type="curve" smooth="yes"/>
      <point x="206" y="382"/>
      <point x="196" y="452"/>
      <point x="180" y="494" type="curve" smooth="yes"/>
      <point x="167" y="532"/>
      <point x="148" y="544"/>
      <point x="127" y="544" type="curve" smooth="yes"/>
      <point x="115" y="544"/>
      <point x="107" y="538"/>
      <point x="99" y="531" type="curve" smooth="yes"/>
      <point x="89" y="521"/>
      <point x="83" y="504"/>
      <point x="79" y="494" type="curve"/>
      <point x="77" y="494" type="line"/>
      <point x="79" y="532" type="line"/>
      <point x="19" y="532" type="line"/>
    </contour>
    <contour>
      <point x="79" y="423" type="line"/>
      <point x="84" y="453"/>
      <point x="90" y="471"/>
      <point x="96" y="480" type="curve" smooth="yes"/>
      <point x="101" y="490"/>
      <point x="104" y="493"/>
      <point x="109" y="493" type="curve" smooth="yes"/>
      <point x="119" y="493"/>
      <point x="126" y="479"/>
      <point x="132" y="453" type="curve" smooth="yes"/>
      <point x="141" y="419"/>
      <point x="145" y="358"/>
      <point x="145" y="263" type="curve" smooth="yes"/>
      <point x="145" y="145"/>
      <point x="136" y="91"/>
      <point x="129" y="68" type="curve" smooth="yes"/>
      <point x="123" y="48"/>
      <point x="117" y="39"/>
      <point x="109" y="39" type="curve" smooth="yes"/>
      <point x="101" y="39"/>
      <point x="95" y="46"/>
      <point x="90" y="58" type="curve" smooth="yes"/>
      <point x="84" y="72"/>
      <point x="81" y="88"/>
      <point x="79" y="110" type="curve"/>
    </contour>
  </outline>
</glyph>
<glyph name="q" format="1">
  <advance width="223"/>
  <unicode hex="0071"/>
  <outline>
    <contour>
      <point x="204" y="-248" type="line"/>
      <point x="204" y="532" type="line"/>
      <point x="144" y="532" type="line"/>
      <point x="145" y="494" type="line"/>
      <point x="143" y="494" type="line"/>
      <point x="140" y="504"/>
      <point x="133" y="521"/>
      <point x="123" y="531" type="curve" smooth="yes"/>
      <point x="117" y="539"/>
      <point x="107" y="544"/>
      <point x="95" y="544" type="curve" smooth="yes"/>
      <point x="74" y="544"/>
      <point x="57" y="532"/>
      <point x="42" y="494" type="curve" smooth="yes"/>
      <point x="26" y="452"/>
      <point x="16" y="382"/>
      <point x="16" y="265" type="curve" smooth="yes"/>
      <point x="16" y="158"/>
      <point x="26" y="76"/>
      <point x="43" y="36" type="curve" smooth="yes"/>
      <point x="57" y="2"/>
      <point x="74" y="-12"/>
      <point x="94" y="-12" type="curve" smooth="yes"/>
      <point x="103" y="-12"/>
      <point x="115" y="-9"/>
      <point x="125" y="2" type="curve" smooth="yes"/>
      <point x="131" y="8"/>
      <point x="136" y="15"/>
      <point x="143" y="28" type="curve"/>
      <point x="144" y="28" type="line"/>
      <point x="144" y="-248" type="line"/>
    </contour>
    <contour>
      <point x="144" y="110" type="line"/>
      <point x="142" y="88"/>
      <point x="138" y="72"/>
      <point x="134" y="61" type="curve" smooth="yes"/>
      <point x="128" y="46"/>
      <point x="121" y="39"/>
      <point x="113" y="39" type="curve" smooth="yes"/>
      <point x="106" y="39"/>
      <point x="99" y="48"/>
      <point x="93" y="71" type="curve" smooth="yes"/>
      <point x="86" y="94"/>
      <point x="78" y="149"/>
      <point x="78" y="264" type="curve" smooth="yes"/>
      <point x="78" y="332"/>
      <point x="81" y="413"/>
      <point x="89" y="449" type="curve" smooth="yes"/>
      <point x="96" y="481"/>
      <point x="103" y="493"/>
      <point x="113" y="493" type="curve" smooth="yes"/>
      <point x="118" y="493"/>
      <point x="122" y="490"/>
      <point x="127" y="480" type="curve" smooth="yes"/>
      <point x="132" y="471"/>
      <point x="138" y="453"/>
      <point x="144" y="423" type="curve"/>
    </contour>
  </outline>
</glyph>
<glyph name="r" format="1">
  <advance width="137"/>
  <unicode hex="0072"/>
  <outline>
    <contour>
      <point x="77" y="493" type="line"/>
      <point x="79" y="532" type="line"/>
      <point x="19" y="532" type="line"/>
      <point x="19" y="0" type="line"/>
      <point x="79" y="0" type="line"/>
      <point x="79" y="416" type="line"/>
      <point x="86" y="440"/>
      <point x="93" y="459"/>
      <point x="100" y="472" type="curve" smooth="yes"/>
      <point x="108" y="486"/>
      <point x="113" y="493"/>
      <point x="122" y="493" type="curve" smooth="yes"/>
      <point x="125" y="493"/>
      <point x="126" y="493"/>
      <point x="130" y="491" type="curve" smooth="yes"/>
      <point x="133" y="490"/>
      <point x="135" y="488"/>
      <point x="137" y="486" type="curve"/>
      <point x="141" y="538" type="line"/>
      <point x="138" y="540"/>
      <point x="135" y="541"/>
      <point x="132" y="543" type="curve" smooth="yes"/>
      <point x="129" y="543"/>
      <point x="125" y="544"/>
      <point x="121" y="544" type="curve" smooth="yes"/>
      <point x="110" y="544"/>
      <point x="103" y="538"/>
      <point x="96" y="531" type="curve" smooth="yes"/>
      <point x="89" y="521"/>
      <point x="84" y="507"/>
      <point x="80" y="493" type="curve"/>
    </contour>
  </outline>
</glyph>
<glyph name="s" format="1">
  <advance width="190"/>
  <unicode hex="0073"/>
  <outline>
    <contour>
      <point x="174" y="451" type="line"/>
      <point x="175" y="480"/>
      <point x="167" y="501"/>
      <point x="155" y="516" type="curve" smooth="yes"/>
      <point x="141" y="534"/>
      <point x="121" y="544"/>
      <point x="93" y="544" type="curve" smooth="yes"/>
      <point x="71" y="544"/>
      <point x="53" y="533"/>
      <point x="39" y="513" type="curve" smooth="yes"/>
      <point x="24" y="493"/>
      <point x="15" y="460"/>
      <point x="15" y="422" type="curve" smooth="yes"/>
      <point x="15" y="394"/>
      <point x="21" y="364"/>
      <point x="29" y="342" type="curve" smooth="yes"/>
      <point x="39" y="314"/>
      <point x="53" y="294"/>
      <point x="72" y="266" type="curve" smooth="yes"/>
      <point x="87" y="244"/>
      <point x="100" y="227"/>
      <point x="108" y="202" type="curve" smooth="yes"/>
      <point x="115" y="183"/>
      <point x="117" y="160"/>
      <point x="117" y="138" type="curve" smooth="yes"/>
      <point x="117" y="96"/>
      <point x="114" y="70"/>
      <point x="109" y="54" type="curve" smooth="yes"/>
      <point x="103" y="37"/>
      <point x="97" y="29"/>
      <point x="88" y="29" type="curve" smooth="yes"/>
      <point x="76" y="29"/>
      <point x="64" y="46"/>
      <point x="66" y="88" type="curve"/>
      <point x="10" y="89" type="line"/>
      <point x="9" y="53"/>
      <point x="22" y="24"/>
      <point x="35" y="11" type="curve" smooth="yes"/>
      <point x="51" y="-8"/>
      <point x="72" y="-12"/>
      <point x="92" y="-12" type="curve" smooth="yes"/>
      <point x="120" y="-12"/>
      <point x="143" y="6"/>
      <point x="158" y="31" type="curve" smooth="yes"/>
      <point x="174" y="60"/>
      <point x="180" y="98"/>
      <point x="180" y="143" type="curve" smooth="yes"/>
      <point x="180" y="184"/>
      <point x="173" y="210"/>
      <point x="164" y="229" type="curve" smooth="yes"/>
      <point x="154" y="253"/>
      <point x="138" y="275"/>
      <point x="119" y="306" type="curve" smooth="yes"/>
      <point x="99" y="335"/>
      <point x="90" y="346"/>
      <point x="84" y="367" type="curve" smooth="yes"/>
      <point x="78" y="383"/>
      <point x="74" y="407"/>
      <point x="74" y="427" type="curve" smooth="yes"/>
      <point x="74" y="452"/>
      <point x="77" y="474"/>
      <point x="83" y="487" type="curve" smooth="yes"/>
      <point x="87" y="496"/>
      <point x="91" y="503"/>
      <point x="98" y="503" type="curve" smooth="yes"/>
      <point x="115" y="503"/>
      <point x="121" y="477"/>
      <point x="120" y="452" type="curve"/>
    </contour>
  </outline>
</glyph>
<glyph name="t" format="1">
  <advance width="114"/>
  <unicode hex="0074"/>
  <outline>
    <contour>
      <point x="25" y="532" type="line"/>
      <point x="4" y="532" type="line"/>
      <point x="4" y="488" type="line"/>
      <point x="25" y="488" type="line"/>
      <point x="25" y="137" type="line"/>
      <point x="25" y="35"/>
      <point x="36" y="-12"/>
      <point x="87" y="-12" type="curve" smooth="yes"/>
      <point x="102" y="-12"/>
      <point x="109" y="-7"/>
      <point x="116" y="-4" type="curve"/>
      <point x="110" y="40" type="line"/>
      <point x="107" y="36"/>
      <point x="106" y="34"/>
      <point x="101" y="34" type="curve" smooth="yes"/>
      <point x="81" y="34"/>
      <point x="85" y="82"/>
      <point x="85" y="168" type="curve" smooth="yes"/>
      <point x="85" y="488" type="line"/>
      <point x="106" y="488" type="line"/>
      <point x="106" y="532" type="line"/>
      <point x="85" y="532" type="line"/>
      <point x="85" y="644" type="line"/>
      <point x="25" y="644" type="line"/>
    </contour>
  </outline>
</glyph>
<glyph name="u" format="1">
  <advance width="219"/>
  <unicode hex="0075"/>
  <outline>
    <contour>
      <point x="18" y="532" type="line"/>
      <point x="18" y="118" type="line"/>
      <point x="18" y="64"/>
      <point x="23" y="33"/>
      <point x="34" y="13" type="curve" smooth="yes"/>
      <point x="45" y="-7"/>
      <point x="64" y="-12"/>
      <point x="78" y="-12" type="curve" smooth="yes"/>
      <point x="95" y="-12"/>
      <point x="109" y="-3"/>
      <point x="119" y="11" type="curve" smooth="yes"/>
      <point x="128" y="24"/>
      <point x="136" y="42"/>
      <point x="139" y="53" type="curve"/>
      <point x="142" y="53" type="line"/>
      <point x="141" y="0" type="line"/>
      <point x="202" y="0" type="line"/>
      <point x="202" y="532" type="line"/>
      <point x="141" y="532" type="line"/>
      <point x="141" y="110" type="line"/>
      <point x="134" y="84"/>
      <point x="127" y="66"/>
      <point x="120" y="55" type="curve" smooth="yes"/>
      <point x="114" y="44"/>
      <point x="108" y="40"/>
      <point x="102" y="40" type="curve" smooth="yes"/>
      <point x="93" y="40"/>
      <point x="90" y="46"/>
      <point x="85" y="55" type="curve" smooth="yes"/>
      <point x="78" y="73"/>
      <point x="78" y="109"/>
      <point x="78" y="152" type="curve" smooth="yes"/>
      <point x="78" y="532" type="line"/>
    </contour>
  </outline>
</glyph>
<glyph name="v" format="1">
  <advance width="163"/>
  <unicode hex="0076"/>
  <outline>
    <contour>
      <point x="80" y="45" type="line"/>
      <point x="77" y="142"/>
      <point x="73" y="227"/>
      <point x="69" y="303" type="curve" smooth="yes"/>
      <point x="57" y="532" type="line"/>
      <point x="-4" y="532" type="line"/>
      <point x="49" y="0" type="line"/>
      <point x="113" y="0" type="line"/>
      <point x="166" y="532" type="line"/>
      <point x="106" y="532" type="line"/>
      <point x="94" y="304" type="line"/>
      <point x="87" y="185"/>
      <point x="85" y="142"/>
      <point x="83" y="45" type="curve"/>
    </contour>
  </outline>
</glyph>
<glyph name="w" format="1">
  <advance width="219"/>
  <unicode hex="0077"/>
  <outline>
    <contour>
      <point x="113" y="477" type="line"/>
      <point x="114" y="389"/>
      <point x="115" y="336"/>
      <point x="118" y="237" type="curve" smooth="yes"/>
      <point x="125" y="0" type="line"/>
      <point x="195" y="0" type="line"/>
      <point x="221" y="532" type="line"/>
      <point x="169" y="532" type="line"/>
      <point x="165" y="303" type="line"/>
      <point x="163" y="226"/>
      <point x="161" y="149"/>
      <point x="162" y="53" type="curve"/>
      <point x="158" y="53" type="line"/>
      <point x="157" y="141"/>
      <point x="154" y="225"/>
      <point x="151" y="301" type="curve" smooth="yes"/>
      <point x="144" y="532" type="line"/>
      <point x="77" y="532" type="line"/>
      <point x="70" y="301" type="line"/>
      <point x="67" y="225"/>
      <point x="64" y="147"/>
      <point x="63" y="53" type="curve"/>
      <point x="59" y="53" type="line"/>
      <point x="60" y="148"/>
      <point x="57" y="237"/>
      <point x="56" y="294" type="curve" smooth="yes"/>
      <point x="50" y="532" type="line"/>
      <point x="-1" y="532" type="line"/>
      <point x="25" y="0" type="line"/>
      <point x="95" y="0" type="line"/>
      <point x="102" y="228" type="line"/>
      <point x="105" y="323"/>
      <point x="107" y="382"/>
      <point x="108" y="477" type="curve"/>
    </contour>
  </outline>
</glyph>
<glyph name="x" format="1">
  <advance width="184"/>
  <unicode hex="0078"/>
  <outline>
    <contour>
      <point x="182" y="532" type="line"/>
      <point x="121" y="532" type="line"/>
      <point x="94" y="313" type="line"/>
      <point x="92" y="313" type="line"/>
      <point x="65" y="532" type="line"/>
      <point x="3" y="532" type="line"/>
      <point x="3" y="528" type="line"/>
      <point x="56" y="277" type="line"/>
      <point x="-1" y="3" type="line"/>
      <point x="-1" y="0" type="line"/>
      <point x="61" y="0" type="line"/>
      <point x="91" y="239" type="line"/>
      <point x="93" y="239" type="line"/>
      <point x="124" y="0" type="line"/>
      <point x="185" y="0" type="line"/>
      <point x="185" y="3" type="line"/>
      <point x="129" y="277" type="line"/>
      <point x="182" y="528" type="line"/>
    </contour>
  </outline>
</glyph>
<glyph name="y" format="1">
  <advance width="181"/>
  <unicode hex="0079"/>
  <outline>
    <contour>
      <point x="184" y="532" type="line"/>
      <point x="126" y="532" type="line"/>
      <point x="111" y="330" type="line" smooth="yes"/>
      <point x="106" y="266"/>
      <point x="101" y="202"/>
      <point x="97" y="121" type="curve"/>
      <point x="94" y="121" type="line"/>
      <point x="90" y="197"/>
      <point x="82" y="266"/>
      <point x="76" y="329" type="curve" smooth="yes"/>
      <point x="54" y="532" type="line"/>
      <point x="-7" y="532" type="line"/>
      <point x="71" y="31" type="line"/>
      <point x="58" y="-92" type="line" smooth="yes"/>
      <point x="54" y="-132"/>
      <point x="48" y="-164"/>
      <point x="42" y="-185" type="curve" smooth="yes"/>
      <point x="36" y="-205"/>
      <point x="28" y="-217"/>
      <point x="20" y="-217" type="curve" smooth="yes"/>
      <point x="17" y="-217"/>
      <point x="14" y="-216"/>
      <point x="11" y="-214" type="curve" smooth="yes"/>
      <point x="7" y="-211"/>
      <point x="4" y="-208"/>
      <point x="2" y="-205" type="curve"/>
      <point x="-12" y="-246" type="line"/>
      <point x="-6" y="-251"/>
      <point x="0" y="-255"/>
      <point x="7" y="-257" type="curve" smooth="yes"/>
      <point x="12" y="-260"/>
      <point x="19" y="-261"/>
      <point x="26" y="-261" type="curve" smooth="yes"/>
      <point x="52" y="-261"/>
      <point x="71" y="-242"/>
      <point x="83" y="-217" type="curve" smooth="yes"/>
      <point x="97" y="-193"/>
      <point x="108" y="-140"/>
      <point x="113" y="-97" type="curve" smooth="yes"/>
    </contour>
  </outline>
</glyph>
<glyph name="z" format="1">
  <advance width="150"/>
  <unicode hex="007A"/>
  <outline>
    <contour>
      <point x="140" y="532" type="line"/>
      <point x="13" y="532" type="line"/>
      <point x="13" y="488" type="line"/>
      <point x="82" y="488" type="line"/>
      <point x="6" y="40" type="line"/>
      <point x="6" y="0" type="line"/>
      <point x="145" y="0" type="line"/>
      <point x="145" y="44" type="line"/>
      <point x="65" y="44" type="line"/>
      <point x="140" y="492" type="line"/>
    </contour>
  </outline>
</glyph>
<glyph name="braceleft" format="1">
  <advance width="142"/>
  <unicode hex="007B"/>
  <outline>
    <contour>
      <point x="-5" y="270" type="line"/>
      <point x="6" y="264"/>
      <point x="18" y="255"/>
      <point x="27" y="242" type="curve" smooth="yes"/>
      <point x="37" y="226"/>
      <point x="42" y="206"/>
      <point x="42" y="173" type="curve" smooth="yes"/>
      <point x="42" y="-1" type="line" smooth="yes"/>
      <point x="42" y="-63"/>
      <point x="53" y="-96"/>
      <point x="70" y="-119" type="curve" smooth="yes"/>
      <point x="93" y="-148"/>
      <point x="134" y="-156"/>
      <point x="159" y="-156" type="curve"/>
      <point x="159" y="-109" type="line"/>
      <point x="142" y="-109"/>
      <point x="127" y="-101"/>
      <point x="117" y="-84" type="curve" smooth="yes"/>
      <point x="107" y="-66"/>
      <point x="104" y="-33"/>
      <point x="104" y="14" type="curve" smooth="yes"/>
      <point x="104" y="161" type="line" smooth="yes"/>
      <point x="104" y="207"/>
      <point x="95" y="240"/>
      <point x="77" y="262" type="curve" smooth="yes"/>
      <point x="64" y="277"/>
      <point x="48" y="286"/>
      <point x="30" y="291" type="curve"/>
      <point x="30" y="294" type="line"/>
      <point x="49" y="299"/>
      <point x="65" y="309"/>
      <point x="77" y="323" type="curve" smooth="yes"/>
      <point x="95" y="345"/>
      <point x="104" y="378"/>
      <point x="104" y="424" type="curve" smooth="yes"/>
      <point x="104" y="570" type="line" smooth="yes"/>
      <point x="104" y="616"/>
      <point x="107" y="649"/>
      <point x="117" y="667" type="curve" smooth="yes"/>
      <point x="127" y="685"/>
      <point x="142" y="693"/>
      <point x="159" y="693" type="curve"/>
      <point x="159" y="739" type="line"/>
      <point x="134" y="739"/>
      <point x="93" y="731"/>
      <point x="70" y="702" type="curve" smooth="yes"/>
      <point x="53" y="679"/>
      <point x="42" y="646"/>
      <point x="42" y="584" type="curve" smooth="yes"/>
      <point x="42" y="412" type="line" smooth="yes"/>
      <point x="42" y="379"/>
      <point x="37" y="359"/>
      <point x="27" y="343" type="curve" smooth="yes"/>
      <point x="18" y="330"/>
      <point x="6" y="321"/>
      <point x="-5" y="315" type="curve"/>
    </contour>
  </outline>
</glyph>
<glyph name="bar" format="1">
  <advance width="86"/>
  <unicode hex="007C"/>
  <outline>
    <contour>
      <point x="18" y="-250" type="line"/>
      <point x="68" y="-250" type="line"/>
      <point x="68" y="750" type="line"/>
      <point x="18" y="750" type="line"/>
    </contour>
  </outline>
</glyph>
<glyph name="braceright" format="1">
  <advance width="142"/>
  <unicode hex="007D"/>
  <outline>
    <contour>
      <point x="147" y="315" type="line"/>
      <point x="135" y="321"/>
      <point x="123" y="330"/>
      <point x="114" y="343" type="curve" smooth="yes"/>
      <point x="105" y="359"/>
      <point x="99" y="379"/>
      <point x="99" y="412" type="curve" smooth="yes"/>
      <point x="99" y="584" type="line"/>
      <point x="99" y="646"/>
      <point x="88" y="679"/>
      <point x="72" y="702" type="curve" smooth="yes"/>
      <point x="48" y="732"/>
      <point x="6" y="739"/>
      <point x="-18" y="739" type="curve"/>
      <point x="-18" y="693" type="line"/>
      <point x="0" y="693"/>
      <point x="14" y="685"/>
      <point x="24" y="667" type="curve" smooth="yes"/>
      <point x="34" y="649"/>
      <point x="38" y="616"/>
      <point x="38" y="570" type="curve" smooth="yes"/>
      <point x="38" y="424" type="line"/>
      <point x="38" y="378"/>
      <point x="46" y="345"/>
      <point x="64" y="323" type="curve" smooth="yes"/>
      <point x="77" y="309"/>
      <point x="92" y="299"/>
      <point x="112" y="294" type="curve"/>
      <point x="112" y="291" type="line"/>
      <point x="93" y="286"/>
      <point x="77" y="277"/>
      <point x="64" y="262" type="curve" smooth="yes"/>
      <point x="46" y="240"/>
      <point x="38" y="207"/>
      <point x="38" y="161" type="curve" smooth="yes"/>
      <point x="38" y="14" type="line"/>
      <point x="38" y="-33"/>
      <point x="34" y="-66"/>
      <point x="24" y="-84" type="curve" smooth="yes"/>
      <point x="14" y="-101"/>
      <point x="0" y="-109"/>
      <point x="-18" y="-109" type="curve"/>
      <point x="-18" y="-156" type="line"/>
      <point x="6" y="-156"/>
      <point x="48" y="-148"/>
      <point x="72" y="-119" type="curve" smooth="yes"/>
      <point x="88" y="-96"/>
      <point x="99" y="-63"/>
      <point x="99" y="-1" type="curve" smooth="yes"/>
      <point x="99" y="173" type="line"/>
      <point x="99" y="206"/>
      <point x="105" y="226"/>
      <point x="114" y="242" type="curve" smooth="yes"/>
      <point x="123" y="255"/>
      <point x="135" y="264"/>
      <point x="147" y="270" type="curve"/>
    </contour>
  </outline>
</glyph>
<glyph name="paragraph" format="1">
  <advance width="276"/>
  <unicode hex="00B6"/>
  <outline>
    <contour>
      <point x="132" y="-136" type="line"/>
      <point x="175" y="-136" type="line"/>
      <point x="175" y="676" type="line"/>
      <point x="202" y="676" type="line"/>
      <point x="202" y="-136" type="line"/>
      <point x="246" y="-136" type="line"/>
      <point x="246" y="709" type="line"/>
      <point x="152" y="709" type="line" smooth="yes"/>
      <point x="101" y="709"/>
      <point x="64" y="688"/>
      <point x="39" y="654" type="curve" smooth="yes"/>
      <point x="12" y="616"/>
      <point x="-1" y="566"/>
      <point x="-1" y="510" type="curve" smooth="yes"/>
      <point x="-1" y="457"/>
      <point x="11" y="408"/>
      <point x="34" y="372" type="curve" smooth="yes"/>
      <point x="57" y="336"/>
      <point x="91" y="314"/>
      <point x="132" y="310" type="curve"/>
    </contour>
  </outline>
</glyph>
<glyph name="endash" format="1">
  <advance width="178"/>
  <unicode hex="2013"/>
  <outline>
    <contour>
      <point x="18" y="278" type="line"/>
      <point x="18" y="221" type="line"/>
      <point x="160" y="221" type="line"/>
      <point x="160" y="278" type="line"/>
    </contour>
  </outline>
</glyph>
<glyph name="emdash" format="1">
  <advance width="356"/>
  <unicode hex="2014"/>
  <outline>
    <contour>
      <point x="18" y="278" type="line"/>
      <point x="18" y="221" type="line"/>
      <point x="338" y="221" type="line"/>
      <point x="338" y="278" type="line"/>
    </contour>
  </outline>
</glyph>
<glyph name="bullet" format="1">
  <advance width="165"/>
  <unicode hex="2022"/>
  <outline>
    <contour>
      <point x="83" y="421" type="line"/>
      <point x="38" y="421"/>
      <point x="3" y="385"/>
      <point x="3" y="341" type="curve" smooth="yes"/>
      <point x="3" y="297"/>
      <point x="38" y="261"/>
      <point x="83" y="261" type="curve" smooth="yes"/>
      <point x="126" y="261"/>
      <point x="162" y="297"/>
      <point x="162" y="341" type="curve" smooth="yes"/>
      <point x="162" y="385"/>
      <point x="126" y="421"/>
      <point x="84" y="421" type="curve"/>
    </contour>
  </outline>
</glyph>
<glyph name="trademark" format="1">
  <advance width="382"/>
  <unicode hex="2122"/>
  <outline>
    <contour>
      <point x="142" y="709" type="line"/>
      <point x="4" y="709" type="line"/>
      <point x="4" y="678" type="line"/>
      <point x="50" y="678" type="line"/>
      <point x="50" y="353" type="line"/>
      <point x="95" y="353" type="line"/>
      <point x="95" y="678" type="line"/>
      <point x="142" y="678" type="line"/>
    </contour>
    <contour>
      <point x="249" y="404" type="line"/>
      <point x="248" y="459"/>
      <point x="243" y="510"/>
      <point x="238" y="560" type="curve" smooth="yes"/>
      <point x="220" y="709" type="line"/>
      <point x="152" y="709" type="line"/>
      <point x="152" y="353" type="line"/>
      <point x="193" y="353" type="line"/>
      <point x="193" y="509" type="line" smooth="yes"/>
      <point x="193" y="560"/>
      <point x="191" y="611"/>
      <point x="190" y="669" type="curve"/>
      <point x="193" y="669" type="line"/>
      <point x="197" y="612"/>
      <point x="203" y="560"/>
      <point x="209" y="508" type="curve" smooth="yes"/>
      <point x="226" y="353" type="line"/>
      <point x="271" y="353" type="line"/>
      <point x="290" y="509" type="line" smooth="yes"/>
      <point x="297" y="560"/>
      <point x="304" y="611"/>
      <point x="307" y="669" type="curve"/>
      <point x="310" y="669" type="line"/>
      <point x="310" y="612"/>
      <point x="308" y="560"/>
      <point x="308" y="509" type="curve" smooth="yes"/>
      <point x="308" y="353" type="line"/>
      <point x="350" y="353" type="line"/>
      <point x="350" y="709" type="line"/>
      <point x="283" y="709" type="line"/>
      <point x="265" y="560" type="line" smooth="yes"/>
      <point x="259" y="511"/>
      <point x="253" y="459"/>
      <point x="252" y="404" type="curve"/>
    </contour>
  </outline>
</glyph>
